<mxfile host="Electron" agent="Mozilla/5.0 (Windows NT 10.0; Win64; x64) AppleWebKit/537.36 (KHTML, like Gecko) draw.io/28.1.2 Chrome/138.0.7204.243 Electron/37.4.0 Safari/537.36" version="28.1.2">
  <diagram name="Страница — 1" id="-X-TMnOxVBcRwOt6y27l">
    <mxGraphModel dx="2316" dy="963" grid="1" gridSize="10" guides="1" tooltips="1" connect="1" arrows="1" fold="1" page="1" pageScale="1" pageWidth="827" pageHeight="1169" math="0" shadow="0">
      <root>
        <mxCell id="0" />
        <mxCell id="1" parent="0" />
        <mxCell id="vpXYMXgtCUjcUCC5rdgy-42" value="&#xa;&lt;table&gt;&lt;tbody&gt;&lt;tr&gt;&lt;td data-col-size=&quot;sm&quot; data-end=&quot;3354&quot; data-start=&quot;3338&quot;&gt;&lt;/td&gt;&lt;/tr&gt;&lt;/tbody&gt;&lt;/table&gt;&lt;table&gt;&lt;tbody&gt;&lt;tr&gt;&lt;td data-col-size=&quot;sm&quot; data-end=&quot;3369&quot; data-start=&quot;3354&quot;&gt;VARCHAR(5)&lt;/td&gt;&lt;/tr&gt;&lt;/tbody&gt;&lt;/table&gt;&#xa;&#xa;" style="swimlane;fontStyle=1;align=center;verticalAlign=middle;childLayout=stackLayout;horizontal=1;startSize=26;horizontalStack=0;resizeParent=1;resizeParentMax=0;resizeLast=0;collapsible=1;marginBottom=0;whiteSpace=wrap;html=12;labelPosition=center;verticalLabelPosition=middle;absoluteArcSize=0;container=1;movable=0;resizable=0;rotatable=0;deletable=0;editable=0;locked=1;connectable=0;" vertex="1" parent="1">
          <mxGeometry y="120" width="160" height="210" as="geometry">
            <mxRectangle y="120" width="80" height="30" as="alternateBounds" />
          </mxGeometry>
        </mxCell>
        <mxCell id="vpXYMXgtCUjcUCC5rdgy-64" value="airport_id" style="text;strokeColor=default;fillColor=none;align=left;verticalAlign=top;spacingLeft=4;spacingRight=4;overflow=hidden;rotatable=0;points=[[0,0.5],[1,0.5]];portConstraint=eastwest;whiteSpace=wrap;html=1;" vertex="1" parent="1">
          <mxGeometry y="146" width="160" height="24" as="geometry" />
        </mxCell>
        <mxCell id="vpXYMXgtCUjcUCC5rdgy-63" value="airport_name" style="text;strokeColor=default;fillColor=none;align=left;verticalAlign=top;spacingLeft=4;spacingRight=4;overflow=hidden;rotatable=0;points=[[0,0.5],[1,0.5]];portConstraint=eastwest;whiteSpace=wrap;html=1;" vertex="1" parent="1">
          <mxGeometry y="170" width="160" height="28" as="geometry" />
        </mxCell>
        <mxCell id="vpXYMXgtCUjcUCC5rdgy-62" value="country" style="text;strokeColor=default;fillColor=none;align=left;verticalAlign=top;spacingLeft=4;spacingRight=4;overflow=hidden;rotatable=0;points=[[0,0.5],[1,0.5]];portConstraint=eastwest;whiteSpace=wrap;html=1;" vertex="1" parent="1">
          <mxGeometry y="198" width="160" height="26" as="geometry" />
        </mxCell>
        <mxCell id="vpXYMXgtCUjcUCC5rdgy-61" value="state" style="text;strokeColor=default;fillColor=none;align=left;verticalAlign=top;spacingLeft=4;spacingRight=4;overflow=hidden;rotatable=0;points=[[0,0.5],[1,0.5]];portConstraint=eastwest;whiteSpace=wrap;html=1;" vertex="1" parent="1">
          <mxGeometry y="224" width="160" height="26" as="geometry" />
        </mxCell>
        <mxCell id="vpXYMXgtCUjcUCC5rdgy-60" value="city" style="text;strokeColor=default;fillColor=none;align=left;verticalAlign=top;spacingLeft=4;spacingRight=4;overflow=hidden;rotatable=0;points=[[0,0.5],[1,0.5]];portConstraint=eastwest;whiteSpace=wrap;html=1;" vertex="1" parent="1">
          <mxGeometry y="250" width="160" height="26" as="geometry" />
        </mxCell>
        <mxCell id="vpXYMXgtCUjcUCC5rdgy-59" value="created_at" style="text;strokeColor=default;fillColor=none;align=left;verticalAlign=top;spacingLeft=4;spacingRight=4;overflow=hidden;rotatable=0;points=[[0,0.5],[1,0.5]];portConstraint=eastwest;whiteSpace=wrap;html=1;" vertex="1" parent="1">
          <mxGeometry y="276" width="160" height="26" as="geometry" />
        </mxCell>
        <mxCell id="vpXYMXgtCUjcUCC5rdgy-58" value="updated_at" style="text;strokeColor=default;fillColor=none;align=left;verticalAlign=top;spacingLeft=4;spacingRight=4;overflow=hidden;rotatable=0;points=[[0,0.5],[1,0.5]];portConstraint=eastwest;whiteSpace=wrap;html=1;" vertex="1" parent="1">
          <mxGeometry y="302" width="160" height="28" as="geometry" />
        </mxCell>
        <mxCell id="vpXYMXgtCUjcUCC5rdgy-56" style="text;strokeColor=none;fillColor=none;align=left;verticalAlign=top;spacingLeft=4;spacingRight=4;overflow=hidden;rotatable=0;points=[[0,0.5],[1,0.5]];portConstraint=eastwest;whiteSpace=wrap;html=1;" vertex="1" parent="1">
          <mxGeometry y="354" width="160" height="26" as="geometry" />
        </mxCell>
        <mxCell id="vpXYMXgtCUjcUCC5rdgy-52" style="text;strokeColor=none;fillColor=none;align=left;verticalAlign=top;spacingLeft=4;spacingRight=4;overflow=hidden;rotatable=0;points=[[0,0.5],[1,0.5]];portConstraint=eastwest;whiteSpace=wrap;html=1;container=0;" vertex="1" parent="1">
          <mxGeometry y="380" width="160" height="26" as="geometry" />
        </mxCell>
        <mxCell id="vpXYMXgtCUjcUCC5rdgy-69" value="VARCHAR" style="text;whiteSpace=wrap;html=1;fontFamily=Helvetica;fontSize=12;fontColor=default;fontStyle=1;horizontal=1;" vertex="1" parent="1">
          <mxGeometry x="90" y="198" width="80" height="40" as="geometry" />
        </mxCell>
        <mxCell id="vpXYMXgtCUjcUCC5rdgy-70" value="VARCHAR" style="text;whiteSpace=wrap;html=1;fontFamily=Helvetica;fontSize=12;fontColor=default;fontStyle=1;horizontal=1;" vertex="1" parent="1">
          <mxGeometry x="90" y="172" width="80" height="40" as="geometry" />
        </mxCell>
        <mxCell id="vpXYMXgtCUjcUCC5rdgy-71" value="VARCHAR" style="text;whiteSpace=wrap;html=1;fontFamily=Helvetica;fontSize=12;fontColor=default;fontStyle=1;horizontal=1;" vertex="1" parent="1">
          <mxGeometry x="90" y="224" width="80" height="40" as="geometry" />
        </mxCell>
        <mxCell id="vpXYMXgtCUjcUCC5rdgy-72" value="VARCHAR" style="text;whiteSpace=wrap;html=1;fontFamily=Helvetica;fontSize=12;fontColor=default;fontStyle=1;horizontal=1;" vertex="1" parent="1">
          <mxGeometry x="90" y="250" width="80" height="40" as="geometry" />
        </mxCell>
        <mxCell id="vpXYMXgtCUjcUCC5rdgy-73" value="TIMESTAMP" style="text;whiteSpace=wrap;html=1;fontFamily=Helvetica;fontSize=12;fontColor=default;fontStyle=1;horizontal=1;" vertex="1" parent="1">
          <mxGeometry x="80" y="276" width="100" height="40" as="geometry" />
        </mxCell>
        <mxCell id="vpXYMXgtCUjcUCC5rdgy-74" value="TIMESTAMP" style="text;whiteSpace=wrap;html=1;fontFamily=Helvetica;fontSize=12;fontColor=default;fontStyle=1;horizontal=1;" vertex="1" parent="1">
          <mxGeometry x="80" y="302" width="100" height="40" as="geometry" />
        </mxCell>
        <mxCell id="vpXYMXgtCUjcUCC5rdgy-75" value="INT" style="text;whiteSpace=wrap;html=1;fontFamily=Helvetica;fontSize=12;fontColor=default;fontStyle=1;horizontal=1;" vertex="1" parent="1">
          <mxGeometry x="90" y="146" width="50" height="40" as="geometry" />
        </mxCell>
        <mxCell id="vpXYMXgtCUjcUCC5rdgy-79" value="Airline" style="swimlane;fontStyle=1;align=center;verticalAlign=top;childLayout=stackLayout;horizontal=1;startSize=26;horizontalStack=0;resizeParent=1;resizeParentMax=0;resizeLast=0;collapsible=1;marginBottom=0;whiteSpace=wrap;html=1;absoluteArcSize=0;fontFamily=Helvetica;fontSize=12;" vertex="1" parent="1">
          <mxGeometry x="280" y="120" width="170" height="200" as="geometry" />
        </mxCell>
        <mxCell id="vpXYMXgtCUjcUCC5rdgy-80" value="&lt;span style=&quot;font-weight: normal;&quot;&gt;airline_id&lt;/span&gt;" style="text;strokeColor=default;fillColor=none;align=left;verticalAlign=top;spacingLeft=4;spacingRight=4;overflow=hidden;rotatable=0;points=[[0,0.5],[1,0.5]];portConstraint=eastwest;whiteSpace=wrap;html=1;fontFamily=Helvetica;fontSize=12;fontColor=default;fontStyle=1;horizontal=1;" vertex="1" parent="vpXYMXgtCUjcUCC5rdgy-79">
          <mxGeometry y="26" width="170" height="24" as="geometry" />
        </mxCell>
        <mxCell id="vpXYMXgtCUjcUCC5rdgy-90" value="&lt;span style=&quot;font-weight: normal;&quot;&gt;airline_code&lt;/span&gt;" style="text;whiteSpace=wrap;html=1;fontFamily=Helvetica;fontSize=12;fontColor=default;fontStyle=1;horizontal=1;" vertex="1" parent="vpXYMXgtCUjcUCC5rdgy-79">
          <mxGeometry y="50" width="170" height="30" as="geometry" />
        </mxCell>
        <mxCell id="vpXYMXgtCUjcUCC5rdgy-92" value="&lt;span style=&quot;font-weight: normal;&quot;&gt;name&lt;/span&gt;" style="text;whiteSpace=wrap;html=1;fontFamily=Helvetica;fontSize=12;fontColor=default;fontStyle=1;horizontal=1;strokeColor=default;" vertex="1" parent="vpXYMXgtCUjcUCC5rdgy-79">
          <mxGeometry y="80" width="170" height="28" as="geometry" />
        </mxCell>
        <mxCell id="vpXYMXgtCUjcUCC5rdgy-93" value="&lt;span style=&quot;font-weight: normal;&quot;&gt;country&lt;/span&gt;" style="text;whiteSpace=wrap;html=1;fontFamily=Helvetica;fontSize=12;fontColor=default;fontStyle=1;horizontal=1;" vertex="1" parent="vpXYMXgtCUjcUCC5rdgy-79">
          <mxGeometry y="108" width="170" height="30" as="geometry" />
        </mxCell>
        <mxCell id="vpXYMXgtCUjcUCC5rdgy-94" value="&lt;span style=&quot;font-weight: normal;&quot;&gt;created_at&lt;/span&gt;" style="text;whiteSpace=wrap;html=1;fontFamily=Helvetica;fontSize=12;fontColor=default;fontStyle=1;horizontal=1;strokeColor=default;" vertex="1" parent="vpXYMXgtCUjcUCC5rdgy-79">
          <mxGeometry y="138" width="170" height="30" as="geometry" />
        </mxCell>
        <mxCell id="vpXYMXgtCUjcUCC5rdgy-95" value="&lt;span style=&quot;font-weight: normal;&quot;&gt;updated_at&lt;/span&gt;" style="text;whiteSpace=wrap;html=1;fontFamily=Helvetica;fontSize=12;fontColor=default;fontStyle=1;horizontal=1;strokeColor=default;" vertex="1" parent="vpXYMXgtCUjcUCC5rdgy-79">
          <mxGeometry y="168" width="170" height="32" as="geometry" />
        </mxCell>
        <mxCell id="vpXYMXgtCUjcUCC5rdgy-96" value="INT" style="text;whiteSpace=wrap;html=1;fontFamily=Helvetica;fontSize=12;fontColor=default;fontStyle=1;horizontal=1;" vertex="1" parent="1">
          <mxGeometry x="360" y="146" width="70" height="24" as="geometry" />
        </mxCell>
        <mxCell id="vpXYMXgtCUjcUCC5rdgy-98" value="VARCHAR(10)" style="text;whiteSpace=wrap;html=1;fontFamily=Helvetica;fontSize=12;fontColor=default;fontStyle=1;horizontal=1;" vertex="1" parent="1">
          <mxGeometry x="360" y="172" width="90" height="30" as="geometry" />
        </mxCell>
        <mxCell id="vpXYMXgtCUjcUCC5rdgy-99" value="VARCHAR" style="text;whiteSpace=wrap;html=1;fontFamily=Helvetica;fontSize=12;fontColor=default;fontStyle=1;horizontal=1;" vertex="1" parent="1">
          <mxGeometry x="360" y="200" width="70" height="30" as="geometry" />
        </mxCell>
        <mxCell id="vpXYMXgtCUjcUCC5rdgy-100" value="VARCHAR" style="text;whiteSpace=wrap;html=1;fontFamily=Helvetica;fontSize=12;fontColor=default;fontStyle=1;horizontal=1;" vertex="1" parent="1">
          <mxGeometry x="360" y="230" width="70" height="30" as="geometry" />
        </mxCell>
        <mxCell id="vpXYMXgtCUjcUCC5rdgy-103" value="TIMESTAMP" style="text;whiteSpace=wrap;html=1;fontFamily=Helvetica;fontSize=12;fontColor=default;fontStyle=1;horizontal=1;" vertex="1" parent="1">
          <mxGeometry x="360" y="290" width="80" height="30" as="geometry" />
        </mxCell>
        <mxCell id="vpXYMXgtCUjcUCC5rdgy-104" value="TIMESTAMP" style="text;whiteSpace=wrap;html=1;fontFamily=Helvetica;fontSize=12;fontColor=default;fontStyle=1;horizontal=1;" vertex="1" parent="1">
          <mxGeometry x="360" y="260" width="80" height="30" as="geometry" />
        </mxCell>
        <mxCell id="vpXYMXgtCUjcUCC5rdgy-105" value="" style="rounded=0;whiteSpace=wrap;html=1;align=center;verticalAlign=middle;absoluteArcSize=0;fontFamily=Helvetica;fontSize=12;fontStyle=1;horizontal=1;" vertex="1" parent="1">
          <mxGeometry x="160" y="120" width="30" height="210" as="geometry" />
        </mxCell>
        <mxCell id="vpXYMXgtCUjcUCC5rdgy-106" value="&lt;font style=&quot;font-size: 11px;&quot;&gt;key&lt;/font&gt;" style="text;html=1;align=center;verticalAlign=middle;resizable=0;points=[];autosize=1;strokeColor=none;fillColor=none;fontFamily=Helvetica;fontSize=12;fontColor=default;fontStyle=1;horizontal=1;" vertex="1" parent="1">
          <mxGeometry x="155" y="116" width="40" height="30" as="geometry" />
        </mxCell>
        <mxCell id="vpXYMXgtCUjcUCC5rdgy-108" value="PK" style="text;whiteSpace=wrap;html=1;fontFamily=Helvetica;fontSize=12;fontColor=default;fontStyle=1;horizontal=1;strokeColor=default;" vertex="1" parent="1">
          <mxGeometry x="160" y="146" width="30" height="24" as="geometry" />
        </mxCell>
        <mxCell id="vpXYMXgtCUjcUCC5rdgy-110" value="" style="rounded=0;whiteSpace=wrap;html=1;strokeColor=#d79b00;align=center;verticalAlign=middle;absoluteArcSize=0;fontFamily=Helvetica;fontSize=12;fontColor=default;fontStyle=1;horizontal=1;fillColor=#ffe6cc;" vertex="1" parent="1">
          <mxGeometry width="240" height="30" as="geometry" />
        </mxCell>
        <mxCell id="vpXYMXgtCUjcUCC5rdgy-111" value="PK - primary key" style="text;whiteSpace=wrap;html=1;fontFamily=Helvetica;fontSize=12;fontColor=default;fontStyle=1;horizontal=1;" vertex="1" parent="1">
          <mxGeometry width="100" height="30" as="geometry" />
        </mxCell>
        <mxCell id="vpXYMXgtCUjcUCC5rdgy-112" value="" style="rounded=0;whiteSpace=wrap;html=1;align=center;verticalAlign=middle;absoluteArcSize=0;fontFamily=Helvetica;fontSize=12;fontStyle=1;horizontal=1;" vertex="1" parent="1">
          <mxGeometry x="450" y="120" width="30" height="200" as="geometry" />
        </mxCell>
        <mxCell id="vpXYMXgtCUjcUCC5rdgy-113" value="&lt;font style=&quot;font-size: 11px;&quot;&gt;key&lt;/font&gt;" style="text;html=1;align=center;verticalAlign=middle;resizable=0;points=[];autosize=1;strokeColor=none;fillColor=none;fontFamily=Helvetica;fontSize=12;fontColor=default;fontStyle=1;horizontal=1;" vertex="1" parent="1">
          <mxGeometry x="445" y="116" width="40" height="30" as="geometry" />
        </mxCell>
        <mxCell id="vpXYMXgtCUjcUCC5rdgy-114" value="PK" style="text;whiteSpace=wrap;html=1;fontFamily=Helvetica;fontSize=12;fontColor=default;fontStyle=1;horizontal=1;strokeColor=default;strokeWidth=1;perimeterSpacing=0;" vertex="1" parent="1">
          <mxGeometry x="450" y="146" width="30" height="24" as="geometry" />
        </mxCell>
        <mxCell id="vpXYMXgtCUjcUCC5rdgy-116" value="" style="rounded=0;whiteSpace=wrap;html=1;strokeColor=#d79b00;align=center;verticalAlign=middle;absoluteArcSize=0;fontFamily=Helvetica;fontSize=12;fontColor=default;fontStyle=1;horizontal=1;fillColor=#ffe6cc;" vertex="1" parent="1">
          <mxGeometry y="30" width="240" height="30" as="geometry" />
        </mxCell>
        <mxCell id="vpXYMXgtCUjcUCC5rdgy-117" value="UNI-Unique" style="text;whiteSpace=wrap;html=1;fontFamily=Helvetica;fontSize=12;fontColor=default;fontStyle=1;horizontal=1;" vertex="1" parent="1">
          <mxGeometry y="30" width="100" height="40" as="geometry" />
        </mxCell>
        <mxCell id="vpXYMXgtCUjcUCC5rdgy-118" value="&lt;span style=&quot;color: rgb(0, 0, 0); font-family: Helvetica; font-size: 12px; font-style: normal; font-variant-ligatures: normal; font-variant-caps: normal; font-weight: 700; letter-spacing: normal; orphans: 2; text-align: left; text-indent: 0px; text-transform: none; widows: 2; word-spacing: 0px; -webkit-text-stroke-width: 0px; white-space: normal; text-decoration-thickness: initial; text-decoration-style: initial; text-decoration-color: initial; float: none; display: inline !important;&quot;&gt;UNI&lt;/span&gt;" style="text;whiteSpace=wrap;html=1;fontFamily=Helvetica;fontSize=12;fontColor=default;fontStyle=1;horizontal=1;strokeColor=default;" vertex="1" parent="1">
          <mxGeometry x="450" y="170" width="30" height="30" as="geometry" />
        </mxCell>
        <mxCell id="vpXYMXgtCUjcUCC5rdgy-120" value="Flight" style="swimlane;fontStyle=1;align=center;verticalAlign=top;childLayout=stackLayout;horizontal=1;startSize=30;horizontalStack=0;resizeParent=1;resizeParentMax=0;resizeLast=0;collapsible=1;marginBottom=0;whiteSpace=wrap;html=1;absoluteArcSize=0;fontFamily=Helvetica;fontSize=12;" vertex="1" parent="1">
          <mxGeometry y="360" width="280" height="400" as="geometry" />
        </mxCell>
        <mxCell id="vpXYMXgtCUjcUCC5rdgy-130" value="flight_id" style="text;strokeColor=default;fillColor=none;align=left;verticalAlign=top;spacingLeft=4;spacingRight=4;overflow=hidden;rotatable=0;points=[[0,0.5],[1,0.5]];portConstraint=eastwest;whiteSpace=wrap;html=1;fontFamily=Helvetica;fontSize=12;fontColor=default;fontStyle=1;horizontal=1;" vertex="1" parent="vpXYMXgtCUjcUCC5rdgy-120">
          <mxGeometry y="30" width="280" height="30" as="geometry" />
        </mxCell>
        <mxCell id="vpXYMXgtCUjcUCC5rdgy-129" value="departure_airport_id" style="text;strokeColor=default;fillColor=none;align=left;verticalAlign=top;spacingLeft=4;spacingRight=4;overflow=hidden;rotatable=0;points=[[0,0.5],[1,0.5]];portConstraint=eastwest;whiteSpace=wrap;html=1;fontFamily=Helvetica;fontSize=12;fontColor=default;fontStyle=1;horizontal=1;" vertex="1" parent="vpXYMXgtCUjcUCC5rdgy-120">
          <mxGeometry y="60" width="280" height="34" as="geometry" />
        </mxCell>
        <mxCell id="vpXYMXgtCUjcUCC5rdgy-128" value="arrival_airport_id" style="text;strokeColor=default;fillColor=none;align=left;verticalAlign=top;spacingLeft=4;spacingRight=4;overflow=hidden;rotatable=0;points=[[0,0.5],[1,0.5]];portConstraint=eastwest;whiteSpace=wrap;html=1;fontFamily=Helvetica;fontSize=12;fontColor=default;fontStyle=1;horizontal=1;" vertex="1" parent="vpXYMXgtCUjcUCC5rdgy-120">
          <mxGeometry y="94" width="280" height="30" as="geometry" />
        </mxCell>
        <mxCell id="vpXYMXgtCUjcUCC5rdgy-127" value="airline_id" style="text;strokeColor=default;fillColor=none;align=left;verticalAlign=top;spacingLeft=4;spacingRight=4;overflow=hidden;rotatable=0;points=[[0,0.5],[1,0.5]];portConstraint=eastwest;whiteSpace=wrap;html=1;fontFamily=Helvetica;fontSize=12;fontColor=default;fontStyle=1;horizontal=1;" vertex="1" parent="vpXYMXgtCUjcUCC5rdgy-120">
          <mxGeometry y="124" width="280" height="30" as="geometry" />
        </mxCell>
        <mxCell id="vpXYMXgtCUjcUCC5rdgy-126" value="departing_gate" style="text;strokeColor=default;fillColor=none;align=left;verticalAlign=top;spacingLeft=4;spacingRight=4;overflow=hidden;rotatable=0;points=[[0,0.5],[1,0.5]];portConstraint=eastwest;whiteSpace=wrap;html=1;fontFamily=Helvetica;fontSize=12;fontColor=default;fontStyle=1;horizontal=1;" vertex="1" parent="vpXYMXgtCUjcUCC5rdgy-120">
          <mxGeometry y="154" width="280" height="30" as="geometry" />
        </mxCell>
        <mxCell id="vpXYMXgtCUjcUCC5rdgy-125" value="arriving_gate" style="text;strokeColor=default;fillColor=none;align=left;verticalAlign=top;spacingLeft=4;spacingRight=4;overflow=hidden;rotatable=0;points=[[0,0.5],[1,0.5]];portConstraint=eastwest;whiteSpace=wrap;html=1;fontFamily=Helvetica;fontSize=12;fontColor=default;fontStyle=1;horizontal=1;" vertex="1" parent="vpXYMXgtCUjcUCC5rdgy-120">
          <mxGeometry y="184" width="280" height="30" as="geometry" />
        </mxCell>
        <mxCell id="vpXYMXgtCUjcUCC5rdgy-124" value="scheduled_departure_time" style="text;strokeColor=default;fillColor=none;align=left;verticalAlign=top;spacingLeft=4;spacingRight=4;overflow=hidden;rotatable=0;points=[[0,0.5],[1,0.5]];portConstraint=eastwest;whiteSpace=wrap;html=1;fontFamily=Helvetica;fontSize=12;fontColor=default;fontStyle=1;horizontal=1;" vertex="1" parent="vpXYMXgtCUjcUCC5rdgy-120">
          <mxGeometry y="214" width="280" height="30" as="geometry" />
        </mxCell>
        <mxCell id="vpXYMXgtCUjcUCC5rdgy-132" value="scheduled_arrival_time" style="text;strokeColor=default;fillColor=none;align=left;verticalAlign=top;spacingLeft=4;spacingRight=4;overflow=hidden;rotatable=0;points=[[0,0.5],[1,0.5]];portConstraint=eastwest;whiteSpace=wrap;html=1;fontFamily=Helvetica;fontSize=12;fontColor=default;fontStyle=1;horizontal=1;" vertex="1" parent="vpXYMXgtCUjcUCC5rdgy-120">
          <mxGeometry y="244" width="280" height="30" as="geometry" />
        </mxCell>
        <mxCell id="vpXYMXgtCUjcUCC5rdgy-133" value="actual_departure_time" style="text;strokeColor=default;fillColor=none;align=left;verticalAlign=top;spacingLeft=4;spacingRight=4;overflow=hidden;rotatable=0;points=[[0,0.5],[1,0.5]];portConstraint=eastwest;whiteSpace=wrap;html=1;fontFamily=Helvetica;fontSize=12;fontColor=default;fontStyle=1;horizontal=1;" vertex="1" parent="vpXYMXgtCUjcUCC5rdgy-120">
          <mxGeometry y="274" width="280" height="30" as="geometry" />
        </mxCell>
        <mxCell id="vpXYMXgtCUjcUCC5rdgy-134" value="actual_arrival_time" style="text;strokeColor=default;fillColor=none;align=left;verticalAlign=top;spacingLeft=4;spacingRight=4;overflow=hidden;rotatable=0;points=[[0,0.5],[1,0.5]];portConstraint=eastwest;whiteSpace=wrap;html=1;fontFamily=Helvetica;fontSize=12;fontColor=default;fontStyle=1;horizontal=1;" vertex="1" parent="vpXYMXgtCUjcUCC5rdgy-120">
          <mxGeometry y="304" width="280" height="30" as="geometry" />
        </mxCell>
        <mxCell id="vpXYMXgtCUjcUCC5rdgy-135" value="created_at" style="text;strokeColor=default;fillColor=none;align=left;verticalAlign=top;spacingLeft=4;spacingRight=4;overflow=hidden;rotatable=0;points=[[0,0.5],[1,0.5]];portConstraint=eastwest;whiteSpace=wrap;html=1;fontFamily=Helvetica;fontSize=12;fontColor=default;fontStyle=1;horizontal=1;" vertex="1" parent="vpXYMXgtCUjcUCC5rdgy-120">
          <mxGeometry y="334" width="280" height="30" as="geometry" />
        </mxCell>
        <mxCell id="vpXYMXgtCUjcUCC5rdgy-136" value="updated_at" style="text;strokeColor=default;fillColor=none;align=left;verticalAlign=top;spacingLeft=4;spacingRight=4;overflow=hidden;rotatable=0;points=[[0,0.5],[1,0.5]];portConstraint=eastwest;whiteSpace=wrap;html=1;fontFamily=Helvetica;fontSize=12;fontColor=default;fontStyle=1;horizontal=1;" vertex="1" parent="vpXYMXgtCUjcUCC5rdgy-120">
          <mxGeometry y="364" width="280" height="36" as="geometry" />
        </mxCell>
        <mxCell id="vpXYMXgtCUjcUCC5rdgy-138" value="INT" style="text;whiteSpace=wrap;html=1;fontFamily=Helvetica;fontSize=12;fontColor=default;fontStyle=1;horizontal=1;" vertex="1" parent="1">
          <mxGeometry x="160" y="390" width="50" height="30" as="geometry" />
        </mxCell>
        <mxCell id="vpXYMXgtCUjcUCC5rdgy-140" value="INT" style="text;whiteSpace=wrap;html=1;fontFamily=Helvetica;fontSize=12;fontColor=default;fontStyle=1;horizontal=1;" vertex="1" parent="1">
          <mxGeometry x="160" y="454" width="50" height="30" as="geometry" />
        </mxCell>
        <mxCell id="vpXYMXgtCUjcUCC5rdgy-141" value="INT" style="text;whiteSpace=wrap;html=1;fontFamily=Helvetica;fontSize=12;fontColor=default;fontStyle=1;horizontal=1;" vertex="1" parent="1">
          <mxGeometry x="160" y="484" width="50" height="30" as="geometry" />
        </mxCell>
        <mxCell id="vpXYMXgtCUjcUCC5rdgy-142" value="VARCHAR(10)" style="text;whiteSpace=wrap;html=1;fontFamily=Helvetica;fontSize=12;fontColor=default;fontStyle=1;horizontal=1;" vertex="1" parent="1">
          <mxGeometry x="160" y="514" width="90" height="30" as="geometry" />
        </mxCell>
        <mxCell id="vpXYMXgtCUjcUCC5rdgy-139" value="INT" style="text;whiteSpace=wrap;html=1;fontFamily=Helvetica;fontSize=12;fontColor=default;fontStyle=1;horizontal=1;" vertex="1" parent="1">
          <mxGeometry x="160" y="420" width="70" height="30" as="geometry" />
        </mxCell>
        <mxCell id="vpXYMXgtCUjcUCC5rdgy-145" value="VARCHAR(10)" style="text;whiteSpace=wrap;html=1;fontFamily=Helvetica;fontSize=12;fontColor=default;fontStyle=1;horizontal=1;" vertex="1" parent="1">
          <mxGeometry x="160" y="544" width="110" height="26" as="geometry" />
        </mxCell>
        <mxCell id="vpXYMXgtCUjcUCC5rdgy-146" value="VARCHAR&lt;div&gt;&lt;br&gt;&lt;/div&gt;" style="text;whiteSpace=wrap;html=1;fontFamily=Helvetica;fontSize=12;fontColor=default;fontStyle=1;horizontal=1;" vertex="1" parent="1">
          <mxGeometry x="160" y="574" width="110" height="40" as="geometry" />
        </mxCell>
        <mxCell id="vpXYMXgtCUjcUCC5rdgy-147" value="TIMESTAMP" style="text;whiteSpace=wrap;html=1;fontFamily=Helvetica;fontSize=12;fontColor=default;fontStyle=1;horizontal=1;" vertex="1" parent="1">
          <mxGeometry x="160" y="604" width="100" height="40" as="geometry" />
        </mxCell>
        <mxCell id="vpXYMXgtCUjcUCC5rdgy-148" value="TIMESTAMP" style="text;whiteSpace=wrap;html=1;fontFamily=Helvetica;fontSize=12;fontColor=default;fontStyle=1;horizontal=1;" vertex="1" parent="1">
          <mxGeometry x="160" y="634" width="100" height="40" as="geometry" />
        </mxCell>
        <mxCell id="vpXYMXgtCUjcUCC5rdgy-149" value="TIMESTAMP" style="text;whiteSpace=wrap;html=1;fontFamily=Helvetica;fontSize=12;fontColor=default;fontStyle=1;horizontal=1;" vertex="1" parent="1">
          <mxGeometry x="160" y="664" width="100" height="40" as="geometry" />
        </mxCell>
        <mxCell id="vpXYMXgtCUjcUCC5rdgy-150" value="TIMESTAMP" style="text;whiteSpace=wrap;html=1;fontFamily=Helvetica;fontSize=12;fontColor=default;fontStyle=1;horizontal=1;" vertex="1" parent="1">
          <mxGeometry x="160" y="694" width="100" height="40" as="geometry" />
        </mxCell>
        <mxCell id="vpXYMXgtCUjcUCC5rdgy-151" value="TIMESTAMP" style="text;whiteSpace=wrap;html=1;fontFamily=Helvetica;fontSize=12;fontColor=default;fontStyle=1;horizontal=1;" vertex="1" parent="1">
          <mxGeometry x="160" y="724" width="100" height="40" as="geometry" />
        </mxCell>
        <mxCell id="vpXYMXgtCUjcUCC5rdgy-152" value="" style="endArrow=none;html=1;rounded=0;fontFamily=Helvetica;fontSize=12;fontColor=default;fontStyle=1;horizontal=1;entryX=0;entryY=0;entryDx=0;entryDy=0;" edge="1" parent="1" target="vpXYMXgtCUjcUCC5rdgy-138">
          <mxGeometry width="50" height="50" relative="1" as="geometry">
            <mxPoint x="160" y="760" as="sourcePoint" />
            <mxPoint x="300" y="520" as="targetPoint" />
          </mxGeometry>
        </mxCell>
        <mxCell id="vpXYMXgtCUjcUCC5rdgy-154" value="Passenger&lt;div&gt;&lt;br&gt;&lt;/div&gt;" style="swimlane;fontStyle=1;align=center;verticalAlign=top;childLayout=stackLayout;horizontal=1;startSize=26;horizontalStack=0;resizeParent=1;resizeParentMax=0;resizeLast=0;collapsible=1;marginBottom=0;whiteSpace=wrap;html=1;absoluteArcSize=0;fontFamily=Helvetica;fontSize=12;" vertex="1" parent="1">
          <mxGeometry x="320" y="360" width="270" height="290" as="geometry" />
        </mxCell>
        <mxCell id="vpXYMXgtCUjcUCC5rdgy-176" value="passenger_id" style="text;strokeColor=default;fillColor=none;align=left;verticalAlign=top;spacingLeft=4;spacingRight=4;overflow=hidden;rotatable=0;points=[[0,0.5],[1,0.5]];portConstraint=eastwest;whiteSpace=wrap;html=1;fontFamily=Helvetica;fontSize=12;fontColor=default;fontStyle=1;horizontal=1;" vertex="1" parent="vpXYMXgtCUjcUCC5rdgy-154">
          <mxGeometry y="26" width="270" height="26" as="geometry" />
        </mxCell>
        <mxCell id="vpXYMXgtCUjcUCC5rdgy-175" value="first_name&lt;span style=&quot;white-space: pre;&quot;&gt;&#x9;&lt;/span&gt;" style="text;strokeColor=none;fillColor=none;align=left;verticalAlign=top;spacingLeft=4;spacingRight=4;overflow=hidden;rotatable=0;points=[[0,0.5],[1,0.5]];portConstraint=eastwest;whiteSpace=wrap;html=1;fontFamily=Helvetica;fontSize=12;fontColor=default;fontStyle=1;horizontal=1;" vertex="1" parent="vpXYMXgtCUjcUCC5rdgy-154">
          <mxGeometry y="52" width="270" height="26" as="geometry" />
        </mxCell>
        <mxCell id="vpXYMXgtCUjcUCC5rdgy-174" value="last_name&lt;span style=&quot;white-space: pre;&quot;&gt;&#x9;&lt;/span&gt;" style="text;strokeColor=default;fillColor=none;align=left;verticalAlign=top;spacingLeft=4;spacingRight=4;overflow=hidden;rotatable=0;points=[[0,0.5],[1,0.5]];portConstraint=eastwest;whiteSpace=wrap;html=1;fontFamily=Helvetica;fontSize=12;fontColor=default;fontStyle=1;horizontal=1;" vertex="1" parent="vpXYMXgtCUjcUCC5rdgy-154">
          <mxGeometry y="78" width="270" height="26" as="geometry" />
        </mxCell>
        <mxCell id="vpXYMXgtCUjcUCC5rdgy-173" value="gender" style="text;strokeColor=default;fillColor=none;align=left;verticalAlign=top;spacingLeft=4;spacingRight=4;overflow=hidden;rotatable=0;points=[[0,0.5],[1,0.5]];portConstraint=eastwest;whiteSpace=wrap;html=1;fontFamily=Helvetica;fontSize=12;fontColor=default;fontStyle=1;horizontal=1;" vertex="1" parent="vpXYMXgtCUjcUCC5rdgy-154">
          <mxGeometry y="104" width="270" height="26" as="geometry" />
        </mxCell>
        <mxCell id="vpXYMXgtCUjcUCC5rdgy-172" value="date_of_birth" style="text;strokeColor=default;fillColor=none;align=left;verticalAlign=top;spacingLeft=4;spacingRight=4;overflow=hidden;rotatable=0;points=[[0,0.5],[1,0.5]];portConstraint=eastwest;whiteSpace=wrap;html=1;fontFamily=Helvetica;fontSize=12;fontColor=default;fontStyle=1;horizontal=1;" vertex="1" parent="vpXYMXgtCUjcUCC5rdgy-154">
          <mxGeometry y="130" width="270" height="26" as="geometry" />
        </mxCell>
        <mxCell id="vpXYMXgtCUjcUCC5rdgy-171" value="country_of_citizenship" style="text;strokeColor=default;fillColor=none;align=left;verticalAlign=top;spacingLeft=4;spacingRight=4;overflow=hidden;rotatable=0;points=[[0,0.5],[1,0.5]];portConstraint=eastwest;whiteSpace=wrap;html=1;fontFamily=Helvetica;fontSize=12;fontColor=default;fontStyle=1;horizontal=1;" vertex="1" parent="vpXYMXgtCUjcUCC5rdgy-154">
          <mxGeometry y="156" width="270" height="26" as="geometry" />
        </mxCell>
        <mxCell id="vpXYMXgtCUjcUCC5rdgy-170" value="country_of_residence" style="text;strokeColor=default;fillColor=none;align=left;verticalAlign=top;spacingLeft=4;spacingRight=4;overflow=hidden;rotatable=0;points=[[0,0.5],[1,0.5]];portConstraint=eastwest;whiteSpace=wrap;html=1;fontFamily=Helvetica;fontSize=12;fontColor=default;fontStyle=1;horizontal=1;" vertex="1" parent="vpXYMXgtCUjcUCC5rdgy-154">
          <mxGeometry y="182" width="270" height="26" as="geometry" />
        </mxCell>
        <mxCell id="vpXYMXgtCUjcUCC5rdgy-169" value="passport_number" style="text;strokeColor=default;fillColor=none;align=left;verticalAlign=top;spacingLeft=4;spacingRight=4;overflow=hidden;rotatable=0;points=[[0,0.5],[1,0.5]];portConstraint=eastwest;whiteSpace=wrap;html=1;fontFamily=Helvetica;fontSize=12;fontColor=default;fontStyle=1;horizontal=1;" vertex="1" parent="vpXYMXgtCUjcUCC5rdgy-154">
          <mxGeometry y="208" width="270" height="26" as="geometry" />
        </mxCell>
        <mxCell id="vpXYMXgtCUjcUCC5rdgy-178" value="created_at" style="text;strokeColor=default;fillColor=none;align=left;verticalAlign=top;spacingLeft=4;spacingRight=4;overflow=hidden;rotatable=0;points=[[0,0.5],[1,0.5]];portConstraint=eastwest;whiteSpace=wrap;html=1;fontFamily=Helvetica;fontSize=12;fontColor=default;fontStyle=1;horizontal=1;" vertex="1" parent="vpXYMXgtCUjcUCC5rdgy-154">
          <mxGeometry y="234" width="270" height="26" as="geometry" />
        </mxCell>
        <mxCell id="vpXYMXgtCUjcUCC5rdgy-177" value="updated_at" style="text;strokeColor=default;fillColor=none;align=left;verticalAlign=top;spacingLeft=4;spacingRight=4;overflow=hidden;rotatable=0;points=[[0,0.5],[1,0.5]];portConstraint=eastwest;whiteSpace=wrap;html=1;fontFamily=Helvetica;fontSize=12;fontColor=default;fontStyle=1;horizontal=1;" vertex="1" parent="vpXYMXgtCUjcUCC5rdgy-154">
          <mxGeometry y="260" width="270" height="30" as="geometry" />
        </mxCell>
        <mxCell id="vpXYMXgtCUjcUCC5rdgy-189" value="" style="endArrow=none;html=1;rounded=0;fontFamily=Helvetica;fontSize=12;fontColor=default;fontStyle=1;horizontal=1;" edge="1" parent="vpXYMXgtCUjcUCC5rdgy-154">
          <mxGeometry width="50" height="50" relative="1" as="geometry">
            <mxPoint x="142" y="290" as="sourcePoint" />
            <mxPoint x="140" y="27" as="targetPoint" />
          </mxGeometry>
        </mxCell>
        <mxCell id="vpXYMXgtCUjcUCC5rdgy-179" value="INT" style="text;whiteSpace=wrap;html=1;fontFamily=Helvetica;fontSize=12;fontColor=default;fontStyle=1;horizontal=1;" vertex="1" parent="1">
          <mxGeometry x="470" y="385" width="30" height="40" as="geometry" />
        </mxCell>
        <mxCell id="vpXYMXgtCUjcUCC5rdgy-180" value="VARCHAR" style="text;whiteSpace=wrap;html=1;fontFamily=Helvetica;fontSize=12;fontColor=default;fontStyle=1;horizontal=1;" vertex="1" parent="1">
          <mxGeometry x="470" y="412" width="90" height="40" as="geometry" />
        </mxCell>
        <mxCell id="vpXYMXgtCUjcUCC5rdgy-181" value="VARCHAR" style="text;whiteSpace=wrap;html=1;fontFamily=Helvetica;fontSize=12;fontColor=default;fontStyle=1;horizontal=1;" vertex="1" parent="1">
          <mxGeometry x="470" y="437" width="90" height="40" as="geometry" />
        </mxCell>
        <mxCell id="vpXYMXgtCUjcUCC5rdgy-182" value="CHAR(1)" style="text;whiteSpace=wrap;html=1;fontFamily=Helvetica;fontSize=12;fontColor=default;fontStyle=1;horizontal=1;" vertex="1" parent="1">
          <mxGeometry x="470" y="463" width="80" height="40" as="geometry" />
        </mxCell>
        <mxCell id="vpXYMXgtCUjcUCC5rdgy-183" value="DATE" style="text;whiteSpace=wrap;html=1;fontFamily=Helvetica;fontSize=12;fontColor=default;fontStyle=1;horizontal=1;" vertex="1" parent="1">
          <mxGeometry x="470" y="490" width="60" height="40" as="geometry" />
        </mxCell>
        <mxCell id="vpXYMXgtCUjcUCC5rdgy-184" value="&#xa;VARCHAR&#xa;&#xa;" style="text;whiteSpace=wrap;html=1;fontFamily=Helvetica;fontSize=12;fontColor=default;fontStyle=1;horizontal=1;" vertex="1" parent="1">
          <mxGeometry x="470" y="500" width="90" height="40" as="geometry" />
        </mxCell>
        <mxCell id="vpXYMXgtCUjcUCC5rdgy-185" value="VARCHAR" style="text;whiteSpace=wrap;html=1;fontFamily=Helvetica;fontSize=12;fontColor=default;fontStyle=1;horizontal=1;" vertex="1" parent="1">
          <mxGeometry x="470" y="540" width="90" height="40" as="geometry" />
        </mxCell>
        <mxCell id="vpXYMXgtCUjcUCC5rdgy-186" value="VARCHAR(20)" style="text;whiteSpace=wrap;html=1;fontFamily=Helvetica;fontSize=12;fontColor=default;fontStyle=1;horizontal=1;" vertex="1" parent="1">
          <mxGeometry x="470" y="570" width="90" height="40" as="geometry" />
        </mxCell>
        <mxCell id="vpXYMXgtCUjcUCC5rdgy-187" value="TIMESTAMP" style="text;whiteSpace=wrap;html=1;fontFamily=Helvetica;fontSize=12;fontColor=default;fontStyle=1;horizontal=1;" vertex="1" parent="1">
          <mxGeometry x="470" y="594" width="100" height="40" as="geometry" />
        </mxCell>
        <mxCell id="vpXYMXgtCUjcUCC5rdgy-188" value="TIMESTAMP" style="text;whiteSpace=wrap;html=1;fontFamily=Helvetica;fontSize=12;fontColor=default;fontStyle=1;horizontal=1;" vertex="1" parent="1">
          <mxGeometry x="470" y="620" width="100" height="40" as="geometry" />
        </mxCell>
        <mxCell id="vpXYMXgtCUjcUCC5rdgy-190" value="&lt;table&gt;&lt;tbody&gt;&lt;tr&gt;&lt;td data-start=&quot;1738&quot; data-end=&quot;1753&quot; data-col-size=&quot;sm&quot;&gt;&lt;/td&gt;&lt;/tr&gt;&lt;/tbody&gt;&lt;/table&gt;&lt;table&gt;&lt;tbody&gt;&lt;tr&gt;&lt;td data-start=&quot;1753&quot; data-end=&quot;1759&quot; data-col-size=&quot;sm&quot;&gt;PK&lt;/td&gt;&lt;/tr&gt;&lt;/tbody&gt;&lt;/table&gt;" style="text;whiteSpace=wrap;html=1;fontFamily=Helvetica;fontSize=12;fontColor=default;fontStyle=1;horizontal=1;align=center;" vertex="1" parent="1">
          <mxGeometry x="250" y="383" width="30" height="30" as="geometry" />
        </mxCell>
        <mxCell id="vpXYMXgtCUjcUCC5rdgy-194" value="FK" style="text;whiteSpace=wrap;html=1;fontFamily=Helvetica;fontSize=12;fontColor=default;fontStyle=1;horizontal=1;align=center;" vertex="1" parent="1">
          <mxGeometry x="240" y="420" width="40" height="43" as="geometry" />
        </mxCell>
        <mxCell id="vpXYMXgtCUjcUCC5rdgy-195" value="FK" style="text;whiteSpace=wrap;html=1;fontFamily=Helvetica;fontSize=12;fontColor=default;fontStyle=1;horizontal=1;align=center;" vertex="1" parent="1">
          <mxGeometry x="250" y="454" width="30" height="40" as="geometry" />
        </mxCell>
        <mxCell id="vpXYMXgtCUjcUCC5rdgy-205" style="edgeStyle=orthogonalEdgeStyle;rounded=0;orthogonalLoop=1;jettySize=auto;html=1;exitX=1;exitY=0.25;exitDx=0;exitDy=0;entryX=1;entryY=0.5;entryDx=0;entryDy=0;fontFamily=Helvetica;fontSize=12;fontColor=default;fontStyle=1;horizontal=1;" edge="1" parent="1" source="vpXYMXgtCUjcUCC5rdgy-196" target="vpXYMXgtCUjcUCC5rdgy-114">
          <mxGeometry relative="1" as="geometry">
            <Array as="points">
              <mxPoint x="290" y="494" />
              <mxPoint x="290" y="340" />
              <mxPoint x="510" y="340" />
              <mxPoint x="510" y="158" />
            </Array>
          </mxGeometry>
        </mxCell>
        <mxCell id="vpXYMXgtCUjcUCC5rdgy-196" value="FK" style="text;whiteSpace=wrap;html=1;fontFamily=Helvetica;fontSize=12;fontColor=default;fontStyle=1;horizontal=1;align=center;" vertex="1" parent="1">
          <mxGeometry x="250" y="485" width="30" height="35" as="geometry" />
        </mxCell>
        <mxCell id="vpXYMXgtCUjcUCC5rdgy-198" value="" style="endArrow=none;html=1;rounded=0;fontFamily=Helvetica;fontSize=12;fontColor=default;fontStyle=1;horizontal=1;entryX=0;entryY=0.25;entryDx=0;entryDy=0;exitX=0.889;exitY=0.913;exitDx=0;exitDy=0;exitPerimeter=0;" edge="1" parent="1" source="vpXYMXgtCUjcUCC5rdgy-151" target="vpXYMXgtCUjcUCC5rdgy-190">
          <mxGeometry width="50" height="50" relative="1" as="geometry">
            <mxPoint x="290" y="570" as="sourcePoint" />
            <mxPoint x="340" y="520" as="targetPoint" />
          </mxGeometry>
        </mxCell>
        <mxCell id="vpXYMXgtCUjcUCC5rdgy-206" value="&lt;table&gt;&lt;tbody&gt;&lt;tr data-start=&quot;2348&quot; data-end=&quot;2388&quot;&gt;&lt;td data-start=&quot;2382&quot; data-end=&quot;2388&quot; data-col-size=&quot;sm&quot;&gt;PK&lt;/td&gt;&lt;/tr&gt;&lt;/tbody&gt;&lt;/table&gt;&lt;table&gt;&lt;tbody&gt;&lt;tr data-start=&quot;2389&quot; data-end=&quot;2426&quot;&gt;&lt;td data-start=&quot;2389&quot; data-end=&quot;2408&quot; data-col-size=&quot;sm&quot;&gt;&lt;/td&gt;&lt;/tr&gt;&lt;/tbody&gt;&lt;/table&gt;" style="text;whiteSpace=wrap;html=1;fontFamily=Helvetica;fontSize=12;fontColor=default;fontStyle=1;horizontal=1;" vertex="1" parent="1">
          <mxGeometry x="560" y="385" width="30" height="25" as="geometry" />
        </mxCell>
        <mxCell id="vpXYMXgtCUjcUCC5rdgy-207" value="UNI" style="text;whiteSpace=wrap;html=1;fontFamily=Helvetica;fontSize=12;fontColor=default;fontStyle=1;horizontal=1;" vertex="1" parent="1">
          <mxGeometry x="560" y="570" width="80" height="40" as="geometry" />
        </mxCell>
        <mxCell id="vpXYMXgtCUjcUCC5rdgy-208" value="" style="endArrow=none;html=1;rounded=0;fontFamily=Helvetica;fontSize=12;fontColor=default;fontStyle=1;horizontal=1;" edge="1" parent="1">
          <mxGeometry width="50" height="50" relative="1" as="geometry">
            <mxPoint x="560" y="650" as="sourcePoint" />
            <mxPoint x="560" y="386" as="targetPoint" />
          </mxGeometry>
        </mxCell>
        <mxCell id="vpXYMXgtCUjcUCC5rdgy-209" value="" style="rounded=0;whiteSpace=wrap;html=1;strokeColor=#d79b00;align=center;verticalAlign=middle;absoluteArcSize=0;fontFamily=Helvetica;fontSize=12;fontColor=default;fontStyle=1;horizontal=1;fillColor=#ffe6cc;" vertex="1" parent="1">
          <mxGeometry y="60" width="240" height="30" as="geometry" />
        </mxCell>
        <mxCell id="vpXYMXgtCUjcUCC5rdgy-210" value="FK-Foreign Key" style="text;html=1;align=center;verticalAlign=middle;resizable=0;points=[];autosize=1;strokeColor=none;fillColor=none;fontFamily=Helvetica;fontSize=12;fontColor=default;fontStyle=1;horizontal=1;" vertex="1" parent="1">
          <mxGeometry x="-5" y="60" width="110" height="30" as="geometry" />
        </mxCell>
        <mxCell id="vpXYMXgtCUjcUCC5rdgy-212" style="edgeStyle=orthogonalEdgeStyle;rounded=0;orthogonalLoop=1;jettySize=auto;html=1;exitX=0;exitY=0.5;exitDx=0;exitDy=0;entryX=0;entryY=0.5;entryDx=0;entryDy=0;fontFamily=Helvetica;fontSize=12;fontColor=default;fontStyle=1;horizontal=1;" edge="1" parent="1" source="vpXYMXgtCUjcUCC5rdgy-129" target="vpXYMXgtCUjcUCC5rdgy-64">
          <mxGeometry relative="1" as="geometry" />
        </mxCell>
        <mxCell id="vpXYMXgtCUjcUCC5rdgy-213" style="edgeStyle=orthogonalEdgeStyle;rounded=0;orthogonalLoop=1;jettySize=auto;html=1;exitX=0;exitY=0.5;exitDx=0;exitDy=0;entryX=0;entryY=0.5;entryDx=0;entryDy=0;fontFamily=Helvetica;fontSize=12;fontColor=default;fontStyle=1;horizontal=1;" edge="1" parent="1" source="vpXYMXgtCUjcUCC5rdgy-128" target="vpXYMXgtCUjcUCC5rdgy-64">
          <mxGeometry relative="1" as="geometry" />
        </mxCell>
        <mxCell id="vpXYMXgtCUjcUCC5rdgy-214" value="Booking" style="swimlane;fontStyle=1;align=center;verticalAlign=top;childLayout=stackLayout;horizontal=1;startSize=26;horizontalStack=0;resizeParent=1;resizeParentMax=0;resizeLast=0;collapsible=1;marginBottom=0;whiteSpace=wrap;html=1;absoluteArcSize=0;fontFamily=Helvetica;fontSize=12;" vertex="1" parent="1">
          <mxGeometry x="334" y="690" width="236" height="234" as="geometry" />
        </mxCell>
        <mxCell id="vpXYMXgtCUjcUCC5rdgy-217" value="booking_id" style="text;strokeColor=default;fillColor=none;align=left;verticalAlign=top;spacingLeft=4;spacingRight=4;overflow=hidden;rotatable=0;points=[[0,0.5],[1,0.5]];portConstraint=eastwest;whiteSpace=wrap;html=1;fontFamily=Helvetica;fontSize=12;fontColor=default;fontStyle=1;horizontal=1;" vertex="1" parent="vpXYMXgtCUjcUCC5rdgy-214">
          <mxGeometry y="26" width="236" height="26" as="geometry" />
        </mxCell>
        <mxCell id="vpXYMXgtCUjcUCC5rdgy-218" value="flight_id" style="text;strokeColor=default;fillColor=none;align=left;verticalAlign=top;spacingLeft=4;spacingRight=4;overflow=hidden;rotatable=0;points=[[0,0.5],[1,0.5]];portConstraint=eastwest;whiteSpace=wrap;html=1;fontFamily=Helvetica;fontSize=12;fontColor=default;fontStyle=1;horizontal=1;" vertex="1" parent="vpXYMXgtCUjcUCC5rdgy-214">
          <mxGeometry y="52" width="236" height="26" as="geometry" />
        </mxCell>
        <mxCell id="vpXYMXgtCUjcUCC5rdgy-223" value="passenger_id" style="text;strokeColor=default;fillColor=none;align=left;verticalAlign=top;spacingLeft=4;spacingRight=4;overflow=hidden;rotatable=0;points=[[0,0.5],[1,0.5]];portConstraint=eastwest;whiteSpace=wrap;html=1;fontFamily=Helvetica;fontSize=12;fontColor=default;fontStyle=1;horizontal=1;" vertex="1" parent="vpXYMXgtCUjcUCC5rdgy-214">
          <mxGeometry y="78" width="236" height="26" as="geometry" />
        </mxCell>
        <mxCell id="vpXYMXgtCUjcUCC5rdgy-222" value="status" style="text;strokeColor=default;fillColor=none;align=left;verticalAlign=top;spacingLeft=4;spacingRight=4;overflow=hidden;rotatable=0;points=[[0,0.5],[1,0.5]];portConstraint=eastwest;whiteSpace=wrap;html=1;fontFamily=Helvetica;fontSize=12;fontColor=default;fontStyle=1;horizontal=1;" vertex="1" parent="vpXYMXgtCUjcUCC5rdgy-214">
          <mxGeometry y="104" width="236" height="26" as="geometry" />
        </mxCell>
        <mxCell id="vpXYMXgtCUjcUCC5rdgy-221" value="booking_platform" style="text;strokeColor=default;fillColor=none;align=left;verticalAlign=top;spacingLeft=4;spacingRight=4;overflow=hidden;rotatable=0;points=[[0,0.5],[1,0.5]];portConstraint=eastwest;whiteSpace=wrap;html=1;fontFamily=Helvetica;fontSize=12;fontColor=default;fontStyle=1;horizontal=1;" vertex="1" parent="vpXYMXgtCUjcUCC5rdgy-214">
          <mxGeometry y="130" width="236" height="26" as="geometry" />
        </mxCell>
        <mxCell id="vpXYMXgtCUjcUCC5rdgy-220" value="ticket_price" style="text;strokeColor=default;fillColor=none;align=left;verticalAlign=top;spacingLeft=4;spacingRight=4;overflow=hidden;rotatable=0;points=[[0,0.5],[1,0.5]];portConstraint=eastwest;whiteSpace=wrap;html=1;fontFamily=Helvetica;fontSize=12;fontColor=default;fontStyle=1;horizontal=1;" vertex="1" parent="vpXYMXgtCUjcUCC5rdgy-214">
          <mxGeometry y="156" width="236" height="26" as="geometry" />
        </mxCell>
        <mxCell id="vpXYMXgtCUjcUCC5rdgy-219" value="created_at" style="text;strokeColor=default;fillColor=none;align=left;verticalAlign=top;spacingLeft=4;spacingRight=4;overflow=hidden;rotatable=0;points=[[0,0.5],[1,0.5]];portConstraint=eastwest;whiteSpace=wrap;html=1;fontFamily=Helvetica;fontSize=12;fontColor=default;fontStyle=1;horizontal=1;" vertex="1" parent="vpXYMXgtCUjcUCC5rdgy-214">
          <mxGeometry y="182" width="236" height="26" as="geometry" />
        </mxCell>
        <mxCell id="vpXYMXgtCUjcUCC5rdgy-224" value="updated_at" style="text;strokeColor=default;fillColor=none;align=left;verticalAlign=top;spacingLeft=4;spacingRight=4;overflow=hidden;rotatable=0;points=[[0,0.5],[1,0.5]];portConstraint=eastwest;whiteSpace=wrap;html=1;fontFamily=Helvetica;fontSize=12;fontColor=default;fontStyle=1;horizontal=1;" vertex="1" parent="vpXYMXgtCUjcUCC5rdgy-214">
          <mxGeometry y="208" width="236" height="26" as="geometry" />
        </mxCell>
        <mxCell id="vpXYMXgtCUjcUCC5rdgy-244" value="" style="endArrow=none;html=1;rounded=0;fontFamily=Helvetica;fontSize=12;fontColor=default;fontStyle=1;horizontal=1;entryX=0.462;entryY=0.041;entryDx=0;entryDy=0;entryPerimeter=0;" edge="1" parent="vpXYMXgtCUjcUCC5rdgy-214" target="vpXYMXgtCUjcUCC5rdgy-217">
          <mxGeometry width="50" height="50" relative="1" as="geometry">
            <mxPoint x="110" y="235" as="sourcePoint" />
            <mxPoint x="-64" y="210" as="targetPoint" />
          </mxGeometry>
        </mxCell>
        <mxCell id="vpXYMXgtCUjcUCC5rdgy-228" value="INT" style="text;whiteSpace=wrap;html=1;fontFamily=Helvetica;fontSize=12;fontColor=default;fontStyle=1;horizontal=1;" vertex="1" parent="1">
          <mxGeometry x="450" y="716" width="30" height="20" as="geometry" />
        </mxCell>
        <mxCell id="vpXYMXgtCUjcUCC5rdgy-229" value="INT" style="text;whiteSpace=wrap;html=1;fontFamily=Helvetica;fontSize=12;fontColor=default;fontStyle=1;horizontal=1;" vertex="1" parent="1">
          <mxGeometry x="450" y="742" width="30" height="20" as="geometry" />
        </mxCell>
        <mxCell id="vpXYMXgtCUjcUCC5rdgy-230" value="INT" style="text;whiteSpace=wrap;html=1;fontFamily=Helvetica;fontSize=12;fontColor=default;fontStyle=1;horizontal=1;" vertex="1" parent="1">
          <mxGeometry x="450" y="768" width="30" height="20" as="geometry" />
        </mxCell>
        <mxCell id="vpXYMXgtCUjcUCC5rdgy-231" style="edgeStyle=orthogonalEdgeStyle;rounded=0;orthogonalLoop=1;jettySize=auto;html=1;exitX=0.5;exitY=1;exitDx=0;exitDy=0;fontFamily=Helvetica;fontSize=12;fontColor=default;fontStyle=1;horizontal=1;" edge="1" parent="1" source="vpXYMXgtCUjcUCC5rdgy-230" target="vpXYMXgtCUjcUCC5rdgy-230">
          <mxGeometry relative="1" as="geometry" />
        </mxCell>
        <mxCell id="vpXYMXgtCUjcUCC5rdgy-232" value="VARCHAR" style="text;whiteSpace=wrap;html=1;fontFamily=Helvetica;fontSize=12;fontColor=default;fontStyle=1;horizontal=1;" vertex="1" parent="1">
          <mxGeometry x="450" y="795" width="90" height="30" as="geometry" />
        </mxCell>
        <mxCell id="vpXYMXgtCUjcUCC5rdgy-233" value="VARCHAR" style="text;whiteSpace=wrap;html=1;fontFamily=Helvetica;fontSize=12;fontColor=default;fontStyle=1;horizontal=1;" vertex="1" parent="1">
          <mxGeometry x="450" y="820" width="90" height="30" as="geometry" />
        </mxCell>
        <mxCell id="vpXYMXgtCUjcUCC5rdgy-234" value="DECIMAL(10,2)" style="text;whiteSpace=wrap;html=1;fontFamily=Helvetica;fontSize=12;fontColor=default;fontStyle=1;horizontal=1;" vertex="1" parent="1">
          <mxGeometry x="450" y="847" width="90" height="24" as="geometry" />
        </mxCell>
        <mxCell id="vpXYMXgtCUjcUCC5rdgy-235" value="TIMESTAMP" style="text;whiteSpace=wrap;html=1;fontFamily=Helvetica;fontSize=12;fontColor=default;fontStyle=1;horizontal=1;" vertex="1" parent="1">
          <mxGeometry x="450" y="871" width="100" height="27" as="geometry" />
        </mxCell>
        <mxCell id="vpXYMXgtCUjcUCC5rdgy-236" value="TIMESTAMP" style="text;whiteSpace=wrap;html=1;fontFamily=Helvetica;fontSize=12;fontColor=default;fontStyle=1;horizontal=1;" vertex="1" parent="1">
          <mxGeometry x="450" y="897" width="100" height="27" as="geometry" />
        </mxCell>
        <mxCell id="vpXYMXgtCUjcUCC5rdgy-238" value="&lt;table&gt;&lt;tbody&gt;&lt;tr data-start=&quot;2348&quot; data-end=&quot;2388&quot;&gt;&lt;td data-start=&quot;2382&quot; data-end=&quot;2388&quot; data-col-size=&quot;sm&quot;&gt;PK&lt;/td&gt;&lt;/tr&gt;&lt;/tbody&gt;&lt;/table&gt;&lt;table&gt;&lt;tbody&gt;&lt;tr data-start=&quot;2389&quot; data-end=&quot;2426&quot;&gt;&lt;td data-start=&quot;2389&quot; data-end=&quot;2408&quot; data-col-size=&quot;sm&quot;&gt;&lt;/td&gt;&lt;/tr&gt;&lt;/tbody&gt;&lt;/table&gt;" style="text;whiteSpace=wrap;html=1;fontFamily=Helvetica;fontSize=12;fontColor=default;fontStyle=1;horizontal=1;" vertex="1" parent="1">
          <mxGeometry x="540" y="717" width="30" height="25" as="geometry" />
        </mxCell>
        <mxCell id="vpXYMXgtCUjcUCC5rdgy-239" value="FK" style="text;whiteSpace=wrap;html=1;fontFamily=Helvetica;fontSize=12;fontColor=default;fontStyle=1;horizontal=1;align=center;" vertex="1" parent="1">
          <mxGeometry x="540" y="742" width="30" height="35" as="geometry" />
        </mxCell>
        <mxCell id="vpXYMXgtCUjcUCC5rdgy-248" style="edgeStyle=orthogonalEdgeStyle;rounded=0;orthogonalLoop=1;jettySize=auto;html=1;exitX=1;exitY=0.5;exitDx=0;exitDy=0;entryX=1;entryY=0.5;entryDx=0;entryDy=0;fontFamily=Helvetica;fontSize=12;fontColor=default;fontStyle=1;horizontal=1;" edge="1" parent="1" source="vpXYMXgtCUjcUCC5rdgy-240" target="vpXYMXgtCUjcUCC5rdgy-206">
          <mxGeometry relative="1" as="geometry" />
        </mxCell>
        <mxCell id="vpXYMXgtCUjcUCC5rdgy-240" value="FK" style="text;whiteSpace=wrap;html=1;fontFamily=Helvetica;fontSize=12;fontColor=default;fontStyle=1;horizontal=1;align=center;" vertex="1" parent="1">
          <mxGeometry x="540" y="768" width="30" height="35" as="geometry" />
        </mxCell>
        <mxCell id="vpXYMXgtCUjcUCC5rdgy-246" value="" style="endArrow=none;html=1;rounded=0;fontFamily=Helvetica;fontSize=12;fontColor=default;fontStyle=1;horizontal=1;entryX=0;entryY=0;entryDx=0;entryDy=0;exitX=0.917;exitY=1.019;exitDx=0;exitDy=0;exitPerimeter=0;" edge="1" parent="1" source="vpXYMXgtCUjcUCC5rdgy-236" target="vpXYMXgtCUjcUCC5rdgy-238">
          <mxGeometry width="50" height="50" relative="1" as="geometry">
            <mxPoint x="531" y="1008" as="sourcePoint" />
            <mxPoint x="530" y="800" as="targetPoint" />
          </mxGeometry>
        </mxCell>
        <mxCell id="vpXYMXgtCUjcUCC5rdgy-247" style="edgeStyle=orthogonalEdgeStyle;rounded=0;orthogonalLoop=1;jettySize=auto;html=1;exitX=0;exitY=0.5;exitDx=0;exitDy=0;entryX=0;entryY=0.5;entryDx=0;entryDy=0;fontFamily=Helvetica;fontSize=12;fontColor=default;fontStyle=1;horizontal=1;" edge="1" parent="1">
          <mxGeometry relative="1" as="geometry">
            <mxPoint x="334" y="756" as="sourcePoint" />
            <mxPoint y="406" as="targetPoint" />
            <Array as="points">
              <mxPoint x="320" y="756" />
              <mxPoint x="320" y="780" />
              <mxPoint x="-30" y="780" />
              <mxPoint x="-30" y="406" />
            </Array>
          </mxGeometry>
        </mxCell>
        <mxCell id="vpXYMXgtCUjcUCC5rdgy-254" value="BoardingPass" style="swimlane;fontStyle=1;align=center;verticalAlign=top;childLayout=stackLayout;horizontal=1;startSize=26;horizontalStack=0;resizeParent=1;resizeParentMax=0;resizeLast=0;collapsible=1;marginBottom=0;whiteSpace=wrap;html=1;absoluteArcSize=0;fontFamily=Helvetica;fontSize=12;" vertex="1" parent="1">
          <mxGeometry x="640" y="694.5" width="250" height="182" as="geometry" />
        </mxCell>
        <mxCell id="vpXYMXgtCUjcUCC5rdgy-293" style="edgeStyle=orthogonalEdgeStyle;rounded=0;orthogonalLoop=1;jettySize=auto;html=1;exitX=1;exitY=0.5;exitDx=0;exitDy=0;entryX=1;entryY=0.5;entryDx=0;entryDy=0;fontFamily=Helvetica;fontSize=12;fontColor=default;fontStyle=1;horizontal=1;" edge="1" parent="vpXYMXgtCUjcUCC5rdgy-254" target="vpXYMXgtCUjcUCC5rdgy-238">
          <mxGeometry relative="1" as="geometry">
            <mxPoint x="210" y="-114.5" as="sourcePoint" />
            <mxPoint x="-70" y="40" as="targetPoint" />
            <Array as="points">
              <mxPoint x="230" y="-114" />
              <mxPoint x="230" y="-14" />
              <mxPoint x="-40" y="-14" />
              <mxPoint x="-40" y="35" />
            </Array>
          </mxGeometry>
        </mxCell>
        <mxCell id="vpXYMXgtCUjcUCC5rdgy-255" value="boarding_pass_id" style="text;strokeColor=default;fillColor=none;align=left;verticalAlign=top;spacingLeft=4;spacingRight=4;overflow=hidden;rotatable=0;points=[[0,0.5],[1,0.5]];portConstraint=eastwest;whiteSpace=wrap;html=1;fontFamily=Helvetica;fontSize=12;fontColor=default;fontStyle=1;horizontal=1;" vertex="1" parent="vpXYMXgtCUjcUCC5rdgy-254">
          <mxGeometry y="26" width="250" height="26" as="geometry" />
        </mxCell>
        <mxCell id="vpXYMXgtCUjcUCC5rdgy-263" value="" style="endArrow=none;html=1;rounded=0;fontFamily=Helvetica;fontSize=12;fontColor=default;fontStyle=1;horizontal=1;entryX=0.507;entryY=0.015;entryDx=0;entryDy=0;entryPerimeter=0;exitX=0.508;exitY=1.032;exitDx=0;exitDy=0;exitPerimeter=0;" edge="1" parent="vpXYMXgtCUjcUCC5rdgy-254">
          <mxGeometry width="50" height="50" relative="1" as="geometry">
            <mxPoint x="120.25000000000023" y="182.44200000000012" as="sourcePoint" />
            <mxPoint x="120" y="26.0000000000001" as="targetPoint" />
          </mxGeometry>
        </mxCell>
        <mxCell id="vpXYMXgtCUjcUCC5rdgy-256" value="booking_id" style="text;strokeColor=default;fillColor=none;align=left;verticalAlign=top;spacingLeft=4;spacingRight=4;overflow=hidden;rotatable=0;points=[[0,0.5],[1,0.5]];portConstraint=eastwest;whiteSpace=wrap;html=1;fontFamily=Helvetica;fontSize=12;fontColor=default;fontStyle=1;horizontal=1;" vertex="1" parent="vpXYMXgtCUjcUCC5rdgy-254">
          <mxGeometry y="52" width="250" height="26" as="geometry" />
        </mxCell>
        <mxCell id="vpXYMXgtCUjcUCC5rdgy-257" value="seat" style="text;strokeColor=default;fillColor=none;align=left;verticalAlign=top;spacingLeft=4;spacingRight=4;overflow=hidden;rotatable=0;points=[[0,0.5],[1,0.5]];portConstraint=eastwest;whiteSpace=wrap;html=1;fontFamily=Helvetica;fontSize=12;fontColor=default;fontStyle=1;horizontal=1;" vertex="1" parent="vpXYMXgtCUjcUCC5rdgy-254">
          <mxGeometry y="78" width="250" height="26" as="geometry" />
        </mxCell>
        <mxCell id="vpXYMXgtCUjcUCC5rdgy-258" value="boarding_time" style="text;strokeColor=default;fillColor=none;align=left;verticalAlign=top;spacingLeft=4;spacingRight=4;overflow=hidden;rotatable=0;points=[[0,0.5],[1,0.5]];portConstraint=eastwest;whiteSpace=wrap;html=1;fontFamily=Helvetica;fontSize=12;fontColor=default;fontStyle=1;horizontal=1;" vertex="1" parent="vpXYMXgtCUjcUCC5rdgy-254">
          <mxGeometry y="104" width="250" height="26" as="geometry" />
        </mxCell>
        <mxCell id="vpXYMXgtCUjcUCC5rdgy-259" value="created_at" style="text;strokeColor=default;fillColor=none;align=left;verticalAlign=top;spacingLeft=4;spacingRight=4;overflow=hidden;rotatable=0;points=[[0,0.5],[1,0.5]];portConstraint=eastwest;whiteSpace=wrap;html=1;fontFamily=Helvetica;fontSize=12;fontColor=default;fontStyle=1;horizontal=1;" vertex="1" parent="vpXYMXgtCUjcUCC5rdgy-254">
          <mxGeometry y="130" width="250" height="26" as="geometry" />
        </mxCell>
        <mxCell id="vpXYMXgtCUjcUCC5rdgy-260" value="updated_at" style="text;strokeColor=default;fillColor=none;align=left;verticalAlign=top;spacingLeft=4;spacingRight=4;overflow=hidden;rotatable=0;points=[[0,0.5],[1,0.5]];portConstraint=eastwest;whiteSpace=wrap;html=1;fontFamily=Helvetica;fontSize=12;fontColor=default;fontStyle=1;horizontal=1;" vertex="1" parent="vpXYMXgtCUjcUCC5rdgy-254">
          <mxGeometry y="156" width="250" height="26" as="geometry" />
        </mxCell>
        <mxCell id="vpXYMXgtCUjcUCC5rdgy-272" value="" style="endArrow=none;html=1;rounded=0;fontFamily=Helvetica;fontSize=12;fontColor=default;fontStyle=1;horizontal=1;entryX=0.841;entryY=0.001;entryDx=0;entryDy=0;entryPerimeter=0;exitX=0.838;exitY=1.003;exitDx=0;exitDy=0;exitPerimeter=0;" edge="1" parent="vpXYMXgtCUjcUCC5rdgy-254" source="vpXYMXgtCUjcUCC5rdgy-260" target="vpXYMXgtCUjcUCC5rdgy-255">
          <mxGeometry width="50" height="50" relative="1" as="geometry">
            <mxPoint x="200.25000000000023" y="201.942" as="sourcePoint" />
            <mxPoint x="200" y="45.5" as="targetPoint" />
          </mxGeometry>
        </mxCell>
        <mxCell id="vpXYMXgtCUjcUCC5rdgy-264" value="INT" style="text;whiteSpace=wrap;html=1;fontFamily=Helvetica;fontSize=12;fontColor=default;fontStyle=1;horizontal=1;" vertex="1" parent="1">
          <mxGeometry x="760" y="720.5" width="30" height="20" as="geometry" />
        </mxCell>
        <mxCell id="vpXYMXgtCUjcUCC5rdgy-265" value="INT" style="text;whiteSpace=wrap;html=1;fontFamily=Helvetica;fontSize=12;fontColor=default;fontStyle=1;horizontal=1;" vertex="1" parent="1">
          <mxGeometry x="760" y="744" width="30" height="20" as="geometry" />
        </mxCell>
        <mxCell id="vpXYMXgtCUjcUCC5rdgy-266" value="&lt;table&gt;&lt;tbody&gt;&lt;tr&gt;&lt;td data-start=&quot;3338&quot; data-end=&quot;3354&quot; data-col-size=&quot;sm&quot;&gt;&lt;/td&gt;&lt;/tr&gt;&lt;/tbody&gt;&lt;/table&gt;&lt;table&gt;&lt;tbody&gt;&lt;tr&gt;&lt;td data-start=&quot;3354&quot; data-end=&quot;3369&quot; data-col-size=&quot;sm&quot;&gt;VARCHAR(5)&lt;/td&gt;&lt;/tr&gt;&lt;/tbody&gt;&lt;/table&gt;" style="text;whiteSpace=wrap;html=1;fontFamily=Helvetica;fontSize=12;fontColor=default;fontStyle=1;horizontal=1;" vertex="1" parent="1">
          <mxGeometry x="760" y="760" width="110" height="30" as="geometry" />
        </mxCell>
        <mxCell id="vpXYMXgtCUjcUCC5rdgy-267" value="TIMESTAMP" style="text;whiteSpace=wrap;html=1;fontFamily=Helvetica;fontSize=12;fontColor=default;fontStyle=1;horizontal=1;" vertex="1" parent="1">
          <mxGeometry x="760" y="790" width="100" height="40" as="geometry" />
        </mxCell>
        <mxCell id="vpXYMXgtCUjcUCC5rdgy-268" value="TIMESTAMP" style="text;whiteSpace=wrap;html=1;fontFamily=Helvetica;fontSize=12;fontColor=default;fontStyle=1;horizontal=1;" vertex="1" parent="1">
          <mxGeometry x="760" y="820" width="100" height="40" as="geometry" />
        </mxCell>
        <mxCell id="vpXYMXgtCUjcUCC5rdgy-269" value="TIMESTAMP" style="text;whiteSpace=wrap;html=1;fontFamily=Helvetica;fontSize=12;fontColor=default;fontStyle=1;horizontal=1;" vertex="1" parent="1">
          <mxGeometry x="760" y="847" width="100" height="40" as="geometry" />
        </mxCell>
        <mxCell id="vpXYMXgtCUjcUCC5rdgy-270" value="&lt;table style=&quot;forced-color-adjust: none; color: rgb(0, 0, 0); font-family: Helvetica; font-size: 12px; font-style: normal; font-variant-ligatures: normal; font-variant-caps: normal; font-weight: 700; letter-spacing: normal; orphans: 2; text-align: left; text-transform: none; widows: 2; word-spacing: 0px; -webkit-text-stroke-width: 0px; white-space: normal; text-decoration-thickness: initial; text-decoration-style: initial; text-decoration-color: initial;&quot;&gt;&lt;tbody style=&quot;forced-color-adjust: none;&quot;&gt;&lt;tr data-end=&quot;2388&quot; data-start=&quot;2348&quot; style=&quot;forced-color-adjust: none;&quot;&gt;&lt;td data-col-size=&quot;sm&quot; data-end=&quot;2388&quot; data-start=&quot;2382&quot; style=&quot;forced-color-adjust: none;&quot;&gt;&lt;span style=&quot;background-color: light-dark(#ffffff, var(--ge-dark-color, #121212));&quot;&gt;PK&lt;/span&gt;&lt;/td&gt;&lt;/tr&gt;&lt;/tbody&gt;&lt;/table&gt;&lt;table style=&quot;forced-color-adjust: none; color: rgb(0, 0, 0); font-family: Helvetica; font-size: 12px; font-style: normal; font-variant-ligatures: normal; font-variant-caps: normal; font-weight: 700; letter-spacing: normal; orphans: 2; text-align: left; text-transform: none; widows: 2; word-spacing: 0px; -webkit-text-stroke-width: 0px; white-space: normal; text-decoration-thickness: initial; text-decoration-style: initial; text-decoration-color: initial; background-color: rgb(236, 236, 236);&quot;&gt;&lt;tbody style=&quot;forced-color-adjust: none;&quot;&gt;&lt;tr data-end=&quot;2426&quot; data-start=&quot;2389&quot; style=&quot;forced-color-adjust: none;&quot;&gt;&lt;td data-col-size=&quot;sm&quot; data-end=&quot;2408&quot; data-start=&quot;2389&quot; style=&quot;forced-color-adjust: none;&quot;&gt;&lt;/td&gt;&lt;/tr&gt;&lt;/tbody&gt;&lt;/table&gt;" style="text;whiteSpace=wrap;html=1;fontFamily=Helvetica;fontSize=12;fontColor=default;fontStyle=1;horizontal=1;" vertex="1" parent="1">
          <mxGeometry x="860" y="714" width="60" height="50" as="geometry" />
        </mxCell>
        <mxCell id="vpXYMXgtCUjcUCC5rdgy-271" value="FK" style="text;whiteSpace=wrap;html=1;fontFamily=Helvetica;fontSize=12;fontColor=default;fontStyle=1;horizontal=1;align=center;" vertex="1" parent="1">
          <mxGeometry x="860" y="740" width="30" height="35" as="geometry" />
        </mxCell>
        <mxCell id="vpXYMXgtCUjcUCC5rdgy-273" style="edgeStyle=orthogonalEdgeStyle;rounded=0;orthogonalLoop=1;jettySize=auto;html=1;exitX=0;exitY=0.5;exitDx=0;exitDy=0;entryX=1;entryY=0.5;entryDx=0;entryDy=0;fontFamily=Helvetica;fontSize=12;fontColor=default;fontStyle=1;horizontal=1;" edge="1" parent="1" source="vpXYMXgtCUjcUCC5rdgy-256" target="vpXYMXgtCUjcUCC5rdgy-238">
          <mxGeometry relative="1" as="geometry" />
        </mxCell>
        <mxCell id="vpXYMXgtCUjcUCC5rdgy-275" value="Baggage" style="swimlane;fontStyle=1;align=center;verticalAlign=top;childLayout=stackLayout;horizontal=1;startSize=26;horizontalStack=0;resizeParent=1;resizeParentMax=0;resizeLast=0;collapsible=1;marginBottom=0;whiteSpace=wrap;html=1;absoluteArcSize=0;fontFamily=Helvetica;fontSize=12;" vertex="1" parent="1">
          <mxGeometry x="640" y="510" width="210" height="156" as="geometry" />
        </mxCell>
        <mxCell id="vpXYMXgtCUjcUCC5rdgy-276" value="baggage_id" style="text;strokeColor=default;fillColor=none;align=left;verticalAlign=top;spacingLeft=4;spacingRight=4;overflow=hidden;rotatable=0;points=[[0,0.5],[1,0.5]];portConstraint=eastwest;whiteSpace=wrap;html=1;fontFamily=Helvetica;fontSize=12;fontColor=default;fontStyle=1;horizontal=1;" vertex="1" parent="vpXYMXgtCUjcUCC5rdgy-275">
          <mxGeometry y="26" width="210" height="26" as="geometry" />
        </mxCell>
        <mxCell id="vpXYMXgtCUjcUCC5rdgy-278" value="booking_id" style="text;strokeColor=default;fillColor=none;align=left;verticalAlign=top;spacingLeft=4;spacingRight=4;overflow=hidden;rotatable=0;points=[[0,0.5],[1,0.5]];portConstraint=eastwest;whiteSpace=wrap;html=1;fontFamily=Helvetica;fontSize=12;fontColor=default;fontStyle=1;horizontal=1;" vertex="1" parent="vpXYMXgtCUjcUCC5rdgy-275">
          <mxGeometry y="52" width="210" height="26" as="geometry" />
        </mxCell>
        <mxCell id="vpXYMXgtCUjcUCC5rdgy-281" value="weight_kg" style="text;strokeColor=default;fillColor=none;align=left;verticalAlign=top;spacingLeft=4;spacingRight=4;overflow=hidden;rotatable=0;points=[[0,0.5],[1,0.5]];portConstraint=eastwest;whiteSpace=wrap;html=1;fontFamily=Helvetica;fontSize=12;fontColor=default;fontStyle=1;horizontal=1;" vertex="1" parent="vpXYMXgtCUjcUCC5rdgy-275">
          <mxGeometry y="78" width="210" height="26" as="geometry" />
        </mxCell>
        <mxCell id="vpXYMXgtCUjcUCC5rdgy-280" value="created_at" style="text;strokeColor=default;fillColor=none;align=left;verticalAlign=top;spacingLeft=4;spacingRight=4;overflow=hidden;rotatable=0;points=[[0,0.5],[1,0.5]];portConstraint=eastwest;whiteSpace=wrap;html=1;fontFamily=Helvetica;fontSize=12;fontColor=default;fontStyle=1;horizontal=1;" vertex="1" parent="vpXYMXgtCUjcUCC5rdgy-275">
          <mxGeometry y="104" width="210" height="26" as="geometry" />
        </mxCell>
        <mxCell id="vpXYMXgtCUjcUCC5rdgy-279" value="updated_at" style="text;strokeColor=default;fillColor=none;align=left;verticalAlign=top;spacingLeft=4;spacingRight=4;overflow=hidden;rotatable=0;points=[[0,0.5],[1,0.5]];portConstraint=eastwest;whiteSpace=wrap;html=1;fontFamily=Helvetica;fontSize=12;fontColor=default;fontStyle=1;horizontal=1;" vertex="1" parent="vpXYMXgtCUjcUCC5rdgy-275">
          <mxGeometry y="130" width="210" height="26" as="geometry" />
        </mxCell>
        <mxCell id="vpXYMXgtCUjcUCC5rdgy-290" value="" style="endArrow=none;html=1;rounded=0;fontFamily=Helvetica;fontSize=12;fontColor=default;fontStyle=1;horizontal=1;exitX=0.381;exitY=1.006;exitDx=0;exitDy=0;exitPerimeter=0;" edge="1" parent="vpXYMXgtCUjcUCC5rdgy-275" source="vpXYMXgtCUjcUCC5rdgy-279">
          <mxGeometry width="50" height="50" relative="1" as="geometry">
            <mxPoint x="-60" y="280" as="sourcePoint" />
            <mxPoint x="80" y="25" as="targetPoint" />
          </mxGeometry>
        </mxCell>
        <mxCell id="vpXYMXgtCUjcUCC5rdgy-282" value="INT" style="text;whiteSpace=wrap;html=1;fontFamily=Helvetica;fontSize=12;fontColor=default;fontStyle=1;horizontal=1;" vertex="1" parent="1">
          <mxGeometry x="720" y="540" width="30" height="20" as="geometry" />
        </mxCell>
        <mxCell id="vpXYMXgtCUjcUCC5rdgy-283" value="INT" style="text;whiteSpace=wrap;html=1;fontFamily=Helvetica;fontSize=12;fontColor=default;fontStyle=1;horizontal=1;" vertex="1" parent="1">
          <mxGeometry x="720" y="565" width="30" height="20" as="geometry" />
        </mxCell>
        <mxCell id="vpXYMXgtCUjcUCC5rdgy-285" value="DECIMAL(5,2)" style="text;whiteSpace=wrap;html=1;fontFamily=Helvetica;fontSize=12;fontColor=default;fontStyle=1;horizontal=1;" vertex="1" parent="1">
          <mxGeometry x="720" y="589" width="110" height="25" as="geometry" />
        </mxCell>
        <mxCell id="vpXYMXgtCUjcUCC5rdgy-286" value="TIMESTAMP" style="text;whiteSpace=wrap;html=1;fontFamily=Helvetica;fontSize=12;fontColor=default;fontStyle=1;horizontal=1;" vertex="1" parent="1">
          <mxGeometry x="720" y="614" width="100" height="27" as="geometry" />
        </mxCell>
        <mxCell id="vpXYMXgtCUjcUCC5rdgy-287" value="TIMESTAMP" style="text;whiteSpace=wrap;html=1;fontFamily=Helvetica;fontSize=12;fontColor=default;fontStyle=1;horizontal=1;" vertex="1" parent="1">
          <mxGeometry x="720" y="640" width="100" height="27" as="geometry" />
        </mxCell>
        <mxCell id="vpXYMXgtCUjcUCC5rdgy-288" value="PK" style="text;whiteSpace=wrap;html=1;fontFamily=Helvetica;fontSize=12;fontColor=default;fontStyle=1;horizontal=1;" vertex="1" parent="1">
          <mxGeometry x="810" y="537" width="40" height="40" as="geometry" />
        </mxCell>
        <mxCell id="vpXYMXgtCUjcUCC5rdgy-289" value="FK" style="text;whiteSpace=wrap;html=1;fontFamily=Helvetica;fontSize=12;fontColor=default;fontStyle=1;horizontal=1;align=center;" vertex="1" parent="1">
          <mxGeometry x="810" y="560" width="40" height="30" as="geometry" />
        </mxCell>
        <mxCell id="vpXYMXgtCUjcUCC5rdgy-292" value="" style="endArrow=none;html=1;rounded=0;fontFamily=Helvetica;fontSize=12;fontColor=default;fontStyle=1;horizontal=1;entryX=0.808;entryY=0.032;entryDx=0;entryDy=0;entryPerimeter=0;exitX=0.903;exitY=0.994;exitDx=0;exitDy=0;exitPerimeter=0;" edge="1" parent="1" source="vpXYMXgtCUjcUCC5rdgy-287" target="vpXYMXgtCUjcUCC5rdgy-276">
          <mxGeometry width="50" height="50" relative="1" as="geometry">
            <mxPoint x="860" y="660" as="sourcePoint" />
            <mxPoint x="910" y="610" as="targetPoint" />
          </mxGeometry>
        </mxCell>
        <mxCell id="vpXYMXgtCUjcUCC5rdgy-294" value="Classname" style="swimlane;fontStyle=1;align=center;verticalAlign=top;childLayout=stackLayout;horizontal=1;startSize=26;horizontalStack=0;resizeParent=1;resizeParentMax=0;resizeLast=0;collapsible=1;marginBottom=0;whiteSpace=wrap;html=1;absoluteArcSize=0;fontFamily=Helvetica;fontSize=12;" vertex="1" parent="1">
          <mxGeometry x="640" y="240" width="260" height="182" as="geometry" />
        </mxCell>
        <mxCell id="vpXYMXgtCUjcUCC5rdgy-303" value="&lt;table&gt;&lt;tbody&gt;&lt;tr&gt;&lt;td data-col-size=&quot;sm&quot; data-end=&quot;3913&quot; data-start=&quot;3891&quot;&gt;baggage_checking_id&lt;/td&gt;&lt;/tr&gt;&lt;/tbody&gt;&lt;/table&gt;&lt;table&gt;&lt;tbody&gt;&lt;tr&gt;&lt;td data-col-size=&quot;sm&quot; data-end=&quot;3924&quot; data-start=&quot;3913&quot;&gt;&lt;/td&gt;&lt;/tr&gt;&lt;/tbody&gt;&lt;/table&gt;" style="text;strokeColor=default;fillColor=none;align=left;verticalAlign=top;spacingLeft=4;spacingRight=4;overflow=hidden;rotatable=0;points=[[0,0.5],[1,0.5]];portConstraint=eastwest;whiteSpace=wrap;html=1;fontFamily=Helvetica;fontSize=12;fontColor=default;fontStyle=1;horizontal=1;" vertex="1" parent="vpXYMXgtCUjcUCC5rdgy-294">
          <mxGeometry y="26" width="260" height="26" as="geometry" />
        </mxCell>
        <mxCell id="vpXYMXgtCUjcUCC5rdgy-302" value="baggage_id" style="text;strokeColor=default;fillColor=none;align=left;verticalAlign=top;spacingLeft=4;spacingRight=4;overflow=hidden;rotatable=0;points=[[0,0.5],[1,0.5]];portConstraint=eastwest;whiteSpace=wrap;html=1;fontFamily=Helvetica;fontSize=12;fontColor=default;fontStyle=1;horizontal=1;" vertex="1" parent="vpXYMXgtCUjcUCC5rdgy-294">
          <mxGeometry y="52" width="260" height="26" as="geometry" />
        </mxCell>
        <mxCell id="vpXYMXgtCUjcUCC5rdgy-301" value="passenger_id" style="text;strokeColor=default;fillColor=none;align=left;verticalAlign=top;spacingLeft=4;spacingRight=4;overflow=hidden;rotatable=0;points=[[0,0.5],[1,0.5]];portConstraint=eastwest;whiteSpace=wrap;html=1;fontFamily=Helvetica;fontSize=12;fontColor=default;fontStyle=1;horizontal=1;" vertex="1" parent="vpXYMXgtCUjcUCC5rdgy-294">
          <mxGeometry y="78" width="260" height="26" as="geometry" />
        </mxCell>
        <mxCell id="vpXYMXgtCUjcUCC5rdgy-300" value="check_results" style="text;strokeColor=default;fillColor=none;align=left;verticalAlign=top;spacingLeft=4;spacingRight=4;overflow=hidden;rotatable=0;points=[[0,0.5],[1,0.5]];portConstraint=eastwest;whiteSpace=wrap;html=1;fontFamily=Helvetica;fontSize=12;fontColor=default;fontStyle=1;horizontal=1;" vertex="1" parent="vpXYMXgtCUjcUCC5rdgy-294">
          <mxGeometry y="104" width="260" height="26" as="geometry" />
        </mxCell>
        <mxCell id="vpXYMXgtCUjcUCC5rdgy-299" value="created_at" style="text;strokeColor=default;fillColor=none;align=left;verticalAlign=top;spacingLeft=4;spacingRight=4;overflow=hidden;rotatable=0;points=[[0,0.5],[1,0.5]];portConstraint=eastwest;whiteSpace=wrap;html=1;fontFamily=Helvetica;fontSize=12;fontColor=default;fontStyle=1;horizontal=1;" vertex="1" parent="vpXYMXgtCUjcUCC5rdgy-294">
          <mxGeometry y="130" width="260" height="26" as="geometry" />
        </mxCell>
        <mxCell id="vpXYMXgtCUjcUCC5rdgy-298" value="updated_at" style="text;strokeColor=default;fillColor=none;align=left;verticalAlign=top;spacingLeft=4;spacingRight=4;overflow=hidden;rotatable=0;points=[[0,0.5],[1,0.5]];portConstraint=eastwest;whiteSpace=wrap;html=1;fontFamily=Helvetica;fontSize=12;fontColor=default;fontStyle=1;horizontal=1;" vertex="1" parent="vpXYMXgtCUjcUCC5rdgy-294">
          <mxGeometry y="156" width="260" height="26" as="geometry" />
        </mxCell>
        <mxCell id="vpXYMXgtCUjcUCC5rdgy-313" value="" style="endArrow=none;html=1;rounded=0;fontFamily=Helvetica;fontSize=12;fontColor=default;fontStyle=1;horizontal=1;entryX=0.531;entryY=0.012;entryDx=0;entryDy=0;entryPerimeter=0;exitX=0.529;exitY=1.038;exitDx=0;exitDy=0;exitPerimeter=0;" edge="1" parent="vpXYMXgtCUjcUCC5rdgy-294" source="vpXYMXgtCUjcUCC5rdgy-298" target="vpXYMXgtCUjcUCC5rdgy-303">
          <mxGeometry width="50" height="50" relative="1" as="geometry">
            <mxPoint x="120" y="150" as="sourcePoint" />
            <mxPoint x="170" y="100" as="targetPoint" />
          </mxGeometry>
        </mxCell>
        <mxCell id="vpXYMXgtCUjcUCC5rdgy-314" value="" style="endArrow=none;html=1;rounded=0;fontFamily=Helvetica;fontSize=12;fontColor=default;fontStyle=1;horizontal=1;entryX=0.832;entryY=0.012;entryDx=0;entryDy=0;entryPerimeter=0;exitX=0.836;exitY=1.046;exitDx=0;exitDy=0;exitPerimeter=0;" edge="1" parent="vpXYMXgtCUjcUCC5rdgy-294" source="vpXYMXgtCUjcUCC5rdgy-298" target="vpXYMXgtCUjcUCC5rdgy-303">
          <mxGeometry width="50" height="50" relative="1" as="geometry">
            <mxPoint x="120" y="150" as="sourcePoint" />
            <mxPoint x="170" y="100" as="targetPoint" />
          </mxGeometry>
        </mxCell>
        <mxCell id="vpXYMXgtCUjcUCC5rdgy-304" value="INT" style="text;whiteSpace=wrap;html=1;fontFamily=Helvetica;fontSize=12;fontColor=default;fontStyle=1;horizontal=1;" vertex="1" parent="1">
          <mxGeometry x="780" y="269" width="30" height="21" as="geometry" />
        </mxCell>
        <mxCell id="vpXYMXgtCUjcUCC5rdgy-305" value="INT" style="text;whiteSpace=wrap;html=1;fontFamily=Helvetica;fontSize=12;fontColor=default;fontStyle=1;horizontal=1;" vertex="1" parent="1">
          <mxGeometry x="780" y="290" width="30" height="21" as="geometry" />
        </mxCell>
        <mxCell id="vpXYMXgtCUjcUCC5rdgy-306" value="INT" style="text;whiteSpace=wrap;html=1;fontFamily=Helvetica;fontSize=12;fontColor=default;fontStyle=1;horizontal=1;" vertex="1" parent="1">
          <mxGeometry x="780" y="320" width="30" height="21" as="geometry" />
        </mxCell>
        <mxCell id="vpXYMXgtCUjcUCC5rdgy-307" value="VARCHAR" style="text;whiteSpace=wrap;html=1;fontFamily=Helvetica;fontSize=12;fontColor=default;fontStyle=1;horizontal=1;" vertex="1" parent="1">
          <mxGeometry x="780" y="342" width="70" height="30" as="geometry" />
        </mxCell>
        <mxCell id="vpXYMXgtCUjcUCC5rdgy-308" value="TIMESTAMP" style="text;whiteSpace=wrap;html=1;fontFamily=Helvetica;fontSize=12;fontColor=default;fontStyle=1;horizontal=1;" vertex="1" parent="1">
          <mxGeometry x="780" y="370" width="80" height="20" as="geometry" />
        </mxCell>
        <mxCell id="vpXYMXgtCUjcUCC5rdgy-309" value="TIMESTAMP" style="text;whiteSpace=wrap;html=1;fontFamily=Helvetica;fontSize=12;fontColor=default;fontStyle=1;horizontal=1;" vertex="1" parent="1">
          <mxGeometry x="780" y="397" width="100" height="40" as="geometry" />
        </mxCell>
        <mxCell id="vpXYMXgtCUjcUCC5rdgy-310" value="PK" style="text;whiteSpace=wrap;html=1;fontFamily=Helvetica;fontSize=12;fontColor=default;fontStyle=1;horizontal=1;" vertex="1" parent="1">
          <mxGeometry x="860" y="269" width="30" height="21" as="geometry" />
        </mxCell>
        <mxCell id="vpXYMXgtCUjcUCC5rdgy-336" style="edgeStyle=orthogonalEdgeStyle;rounded=0;orthogonalLoop=1;jettySize=auto;html=1;exitX=1;exitY=0.5;exitDx=0;exitDy=0;entryX=1;entryY=0.25;entryDx=0;entryDy=0;fontFamily=Helvetica;fontSize=12;fontColor=default;fontStyle=1;horizontal=1;" edge="1" parent="1" source="vpXYMXgtCUjcUCC5rdgy-311" target="vpXYMXgtCUjcUCC5rdgy-288">
          <mxGeometry relative="1" as="geometry" />
        </mxCell>
        <mxCell id="vpXYMXgtCUjcUCC5rdgy-311" value="FK" style="text;whiteSpace=wrap;html=1;fontFamily=Helvetica;fontSize=12;fontColor=default;fontStyle=1;horizontal=1;" vertex="1" parent="1">
          <mxGeometry x="860" y="290" width="40" height="20" as="geometry" />
        </mxCell>
        <mxCell id="vpXYMXgtCUjcUCC5rdgy-312" value="FK" style="text;whiteSpace=wrap;html=1;fontFamily=Helvetica;fontSize=12;fontColor=default;fontStyle=1;horizontal=1;" vertex="1" parent="1">
          <mxGeometry x="860" y="320" width="30" height="20" as="geometry" />
        </mxCell>
        <mxCell id="vpXYMXgtCUjcUCC5rdgy-316" style="edgeStyle=orthogonalEdgeStyle;rounded=0;orthogonalLoop=1;jettySize=auto;html=1;exitX=0;exitY=0.5;exitDx=0;exitDy=0;entryX=1;entryY=0.5;entryDx=0;entryDy=0;fontFamily=Helvetica;fontSize=12;fontColor=default;fontStyle=1;horizontal=1;" edge="1" parent="1" source="vpXYMXgtCUjcUCC5rdgy-301" target="vpXYMXgtCUjcUCC5rdgy-206">
          <mxGeometry relative="1" as="geometry">
            <Array as="points">
              <mxPoint x="630" y="331" />
              <mxPoint x="630" y="398" />
            </Array>
          </mxGeometry>
        </mxCell>
        <mxCell id="vpXYMXgtCUjcUCC5rdgy-317" value="Classname" style="swimlane;fontStyle=1;align=center;verticalAlign=top;childLayout=stackLayout;horizontal=1;startSize=26;horizontalStack=0;resizeParent=1;resizeParentMax=0;resizeLast=0;collapsible=1;marginBottom=0;whiteSpace=wrap;html=1;absoluteArcSize=0;fontFamily=Helvetica;fontSize=12;" vertex="1" parent="1">
          <mxGeometry x="640" y="20" width="270" height="156" as="geometry" />
        </mxCell>
        <mxCell id="vpXYMXgtCUjcUCC5rdgy-318" value="security_check_id" style="text;strokeColor=default;fillColor=none;align=left;verticalAlign=top;spacingLeft=4;spacingRight=4;overflow=hidden;rotatable=0;points=[[0,0.5],[1,0.5]];portConstraint=eastwest;whiteSpace=wrap;html=1;fontFamily=Helvetica;fontSize=12;fontColor=default;fontStyle=1;horizontal=1;" vertex="1" parent="vpXYMXgtCUjcUCC5rdgy-317">
          <mxGeometry y="26" width="270" height="26" as="geometry" />
        </mxCell>
        <mxCell id="vpXYMXgtCUjcUCC5rdgy-324" value="passenger_id" style="text;strokeColor=default;fillColor=none;align=left;verticalAlign=top;spacingLeft=4;spacingRight=4;overflow=hidden;rotatable=0;points=[[0,0.5],[1,0.5]];portConstraint=eastwest;whiteSpace=wrap;html=1;fontFamily=Helvetica;fontSize=12;fontColor=default;fontStyle=1;horizontal=1;" vertex="1" parent="vpXYMXgtCUjcUCC5rdgy-317">
          <mxGeometry y="52" width="270" height="26" as="geometry" />
        </mxCell>
        <mxCell id="vpXYMXgtCUjcUCC5rdgy-323" value="check_results" style="text;strokeColor=default;fillColor=none;align=left;verticalAlign=top;spacingLeft=4;spacingRight=4;overflow=hidden;rotatable=0;points=[[0,0.5],[1,0.5]];portConstraint=eastwest;whiteSpace=wrap;html=1;fontFamily=Helvetica;fontSize=12;fontColor=default;fontStyle=1;horizontal=1;" vertex="1" parent="vpXYMXgtCUjcUCC5rdgy-317">
          <mxGeometry y="78" width="270" height="26" as="geometry" />
        </mxCell>
        <mxCell id="vpXYMXgtCUjcUCC5rdgy-322" value="created_at" style="text;strokeColor=default;fillColor=none;align=left;verticalAlign=top;spacingLeft=4;spacingRight=4;overflow=hidden;rotatable=0;points=[[0,0.5],[1,0.5]];portConstraint=eastwest;whiteSpace=wrap;html=1;fontFamily=Helvetica;fontSize=12;fontColor=default;fontStyle=1;horizontal=1;" vertex="1" parent="vpXYMXgtCUjcUCC5rdgy-317">
          <mxGeometry y="104" width="270" height="26" as="geometry" />
        </mxCell>
        <mxCell id="vpXYMXgtCUjcUCC5rdgy-321" value="updated_at" style="text;strokeColor=default;fillColor=none;align=left;verticalAlign=top;spacingLeft=4;spacingRight=4;overflow=hidden;rotatable=0;points=[[0,0.5],[1,0.5]];portConstraint=eastwest;whiteSpace=wrap;html=1;fontFamily=Helvetica;fontSize=12;fontColor=default;fontStyle=1;horizontal=1;" vertex="1" parent="vpXYMXgtCUjcUCC5rdgy-317">
          <mxGeometry y="130" width="270" height="26" as="geometry" />
        </mxCell>
        <mxCell id="vpXYMXgtCUjcUCC5rdgy-333" value="" style="endArrow=none;html=1;rounded=0;fontFamily=Helvetica;fontSize=12;fontColor=default;fontStyle=1;horizontal=1;entryX=0.501;entryY=0.003;entryDx=0;entryDy=0;entryPerimeter=0;exitX=0.499;exitY=1.032;exitDx=0;exitDy=0;exitPerimeter=0;" edge="1" parent="vpXYMXgtCUjcUCC5rdgy-317" source="vpXYMXgtCUjcUCC5rdgy-321" target="vpXYMXgtCUjcUCC5rdgy-318">
          <mxGeometry width="50" height="50" relative="1" as="geometry">
            <mxPoint x="-100" y="170" as="sourcePoint" />
            <mxPoint x="-50" y="120" as="targetPoint" />
          </mxGeometry>
        </mxCell>
        <mxCell id="vpXYMXgtCUjcUCC5rdgy-325" value="INT" style="text;whiteSpace=wrap;html=1;fontFamily=Helvetica;fontSize=12;fontColor=default;fontStyle=1;horizontal=1;" vertex="1" parent="1">
          <mxGeometry x="803" y="46" width="30" height="20" as="geometry" />
        </mxCell>
        <mxCell id="vpXYMXgtCUjcUCC5rdgy-326" value="INT" style="text;whiteSpace=wrap;html=1;fontFamily=Helvetica;fontSize=12;fontColor=default;fontStyle=1;horizontal=1;" vertex="1" parent="1">
          <mxGeometry x="805" y="74" width="30" height="20" as="geometry" />
        </mxCell>
        <mxCell id="vpXYMXgtCUjcUCC5rdgy-327" value="VARCHAR" style="text;whiteSpace=wrap;html=1;fontFamily=Helvetica;fontSize=12;fontColor=default;fontStyle=1;horizontal=1;" vertex="1" parent="1">
          <mxGeometry x="805" y="100" width="70" height="20" as="geometry" />
        </mxCell>
        <mxCell id="vpXYMXgtCUjcUCC5rdgy-328" value="TIMESTAMP" style="text;whiteSpace=wrap;html=1;fontFamily=Helvetica;fontSize=12;fontColor=default;fontStyle=1;horizontal=1;" vertex="1" parent="1">
          <mxGeometry x="805" y="126" width="100" height="20" as="geometry" />
        </mxCell>
        <mxCell id="vpXYMXgtCUjcUCC5rdgy-329" value="TIMESTAMP" style="text;whiteSpace=wrap;html=1;fontFamily=Helvetica;fontSize=12;fontColor=default;fontStyle=1;horizontal=1;" vertex="1" parent="1">
          <mxGeometry x="805" y="150" width="100" height="20" as="geometry" />
        </mxCell>
        <mxCell id="vpXYMXgtCUjcUCC5rdgy-330" value="PK" style="text;whiteSpace=wrap;html=1;fontFamily=Helvetica;fontSize=12;fontColor=default;fontStyle=1;horizontal=1;" vertex="1" parent="1">
          <mxGeometry x="880" y="46" width="50" height="20" as="geometry" />
        </mxCell>
        <mxCell id="vpXYMXgtCUjcUCC5rdgy-332" value="FK" style="text;whiteSpace=wrap;html=1;fontFamily=Helvetica;fontSize=12;fontColor=default;fontStyle=1;horizontal=1;" vertex="1" parent="1">
          <mxGeometry x="880" y="76" width="50" height="40" as="geometry" />
        </mxCell>
        <mxCell id="vpXYMXgtCUjcUCC5rdgy-334" value="" style="endArrow=none;html=1;rounded=0;fontFamily=Helvetica;fontSize=12;fontColor=default;fontStyle=1;horizontal=1;entryX=-0.03;entryY=-0.059;entryDx=0;entryDy=0;entryPerimeter=0;exitX=0.888;exitY=1.032;exitDx=0;exitDy=0;exitPerimeter=0;" edge="1" parent="1" source="vpXYMXgtCUjcUCC5rdgy-321" target="vpXYMXgtCUjcUCC5rdgy-330">
          <mxGeometry width="50" height="50" relative="1" as="geometry">
            <mxPoint x="540" y="190" as="sourcePoint" />
            <mxPoint x="590" y="140" as="targetPoint" />
          </mxGeometry>
        </mxCell>
        <mxCell id="vpXYMXgtCUjcUCC5rdgy-335" style="edgeStyle=orthogonalEdgeStyle;rounded=0;orthogonalLoop=1;jettySize=auto;html=1;exitX=0;exitY=0.5;exitDx=0;exitDy=0;entryX=1;entryY=0.5;entryDx=0;entryDy=0;fontFamily=Helvetica;fontSize=12;fontColor=default;fontStyle=1;horizontal=1;" edge="1" parent="1" source="vpXYMXgtCUjcUCC5rdgy-324" target="vpXYMXgtCUjcUCC5rdgy-206">
          <mxGeometry relative="1" as="geometry" />
        </mxCell>
      </root>
    </mxGraphModel>
  </diagram>
</mxfile>
